<?xml version="1.0" encoding="iso-8859-1"?>
<!-- Uploaded to: SVG Repo, www.svgrepo.com, Generator: SVG Repo Mixer Tools -->
<svg height="800px" width="800px" version="1.1" id="Layer_1" xmlns="http://www.w3.org/2000/svg" xmlns:xlink="http://www.w3.org/1999/xlink" 
	 viewBox="0 0 512.002 512.002" xml:space="preserve">
<path style="fill:#9BF57D;" d="M361.322,42.29c2.911-0.517,5.444,2.015,4.925,4.925c-2.572,14.461-11.19,52.374-33.666,74.849
	c-15.574,15.574-38.52,17.876-51.252,5.144s-10.43-35.68,5.144-51.252C308.948,53.482,346.861,44.863,361.322,42.29z"/>
<path style="fill:#8CE16E;" d="M361.322,42.29c-14.461,2.573-52.374,11.19-74.849,33.667c-15.573,15.573-17.876,38.52-5.144,51.252
	l83.741-83.741C364.139,42.536,362.778,42.032,361.322,42.29z"/>
<path style="fill:#9BF57D;" d="M145.754,13.011c-0.517-2.911,2.015-5.444,4.925-4.925c14.461,2.572,52.374,11.19,74.849,33.666
	c15.574,15.574,17.876,38.52,5.144,51.252s-35.68,10.43-51.252-5.144C156.944,65.385,148.326,27.473,145.754,13.011z"/>
<path style="fill:#8CE16E;" d="M145.753,13.011c2.573,14.461,11.19,52.374,33.667,74.849c15.573,15.573,38.52,17.876,51.252,5.144
	L146.931,9.262C145.999,10.196,145.494,11.555,145.753,13.011z"/>
<path style="fill:#9BF57D;" d="M256.001,495.434c14.743,0,22.115,8.551,51.602,8.551c58.973,0,162.177-87.331,162.177-240.16
	c0-72.776-58.973-101.886-103.204-101.886c-58.973,0-66.345,17.102-110.575,17.102s-51.602-17.102-110.575-17.102
	c-44.23,0-103.204,29.11-103.204,101.886c0,152.829,103.204,240.16,162.177,240.16C233.885,503.985,241.258,495.434,256.001,495.434
	z"/>
<path style="fill:#8CE16E;" d="M153.387,231.258c0-28.151,9.452-50.247,24.019-67.215c-8.857-1.267-19.15-2.105-31.98-2.105
	c-44.23,0-103.204,29.11-103.204,101.886c0,152.829,103.204,240.16,162.177,240.16c29.486,0,36.859-8.551,51.602-8.551
	c14.743,0,22.114,8.551,51.602,8.551c11.438,0,24.546-3.325,38.235-9.735C269.125,482.838,153.387,388.617,153.387,231.258z"/>
<path d="M439.801,179.354c-20.01-16.163-46.699-25.432-73.226-25.432c-32.753,0-50.532,5.203-66.219,9.793
	c-11.397,3.335-21.489,6.274-36.164,7.082c0.884-10.113,5.24-19.505,12.503-26.769l5.303-5.303
	c5.991,3.695,12.981,5.522,20.248,5.522c12.433,0,25.662-5.323,36.004-15.664c29.81-29.811,36.599-83.137,36.874-85.394
	c0.297-2.447-0.547-4.894-2.29-6.637c-1.742-1.742-4.186-2.585-6.637-2.29c-2.255,0.275-55.582,7.063-85.394,36.874
	c-8.837,8.837-14.339,20.044-15.495,31.559c-0.919,9.156,0.959,17.684,5.334,24.71l-5.284,5.284
	c-0.564,0.564-1.106,1.144-1.644,1.726c-1.359-13.573-7.299-26.157-17.073-35.931l-5.297-5.297
	c10.02-16.245,6.239-39.87-10.147-56.256C201.386,7.121,148.06,0.333,145.803,0.058c-2.447-0.296-4.893,0.547-6.637,2.29
	c-1.742,1.742-2.587,4.19-2.29,6.637c0.275,2.255,7.062,55.582,36.874,85.394c10.342,10.343,23.568,15.665,36.002,15.665
	c7.266,0,14.257-1.828,20.248-5.523l5.303,5.303c8.176,8.177,12.679,19.048,12.679,30.611v30.373
	c-14.771-0.794-24.898-3.744-36.34-7.092c-15.686-4.59-33.466-9.793-66.219-9.793c-26.526,0-53.216,9.269-73.226,25.432
	c-17.331,14.003-37.993,40.021-37.993,84.471c0,36.922,5.893,72.147,17.514,104.695c10.323,28.911,24.874,55.068,43.247,77.743
	c32.362,39.935,75.316,65.739,109.432,65.739c18.461,0,28.909-3.166,37.304-5.71c5.444-1.649,9.377-2.841,14.296-2.841
	c4.919,0,8.853,1.192,14.296,2.841c8.396,2.544,18.844,5.71,37.304,5.71c34.116,0,77.072-25.804,109.432-65.738
	c18.374-22.674,32.925-48.831,43.247-77.743c11.623-32.549,17.516-67.773,17.516-104.696
	C477.796,219.375,457.135,193.356,439.801,179.354z M292.141,82.475c18.443-18.442,48.971-26.972,65.154-30.373
	c-3.384,16.167-11.891,46.653-30.382,65.145c-9.851,9.851-23.146,13.333-33.011,9.576l36.177-36.176
	c3.131-3.131,3.131-8.207,0-11.337c-3.13-3.131-8.206-3.131-11.337,0l-36.177,36.176C278.808,105.621,282.29,92.326,292.141,82.475z
	 M185.088,83.043c-18.443-18.443-26.974-48.971-30.373-65.154c16.167,3.384,46.653,11.891,65.145,30.382
	c9.851,9.851,13.333,23.146,9.576,33.011l-36.176-36.176c-3.131-3.131-8.207-3.131-11.337,0c-3.131,3.131-3.131,8.207,0,11.337
	L218.1,92.618C208.234,96.376,194.939,92.894,185.088,83.043z M404.577,436.169c-29.437,36.326-67.502,59.799-96.974,59.799
	c-16.085,0-24.888-2.668-32.656-5.021c-5.991-1.815-11.651-3.531-18.946-3.531c-7.295,0-12.955,1.715-18.946,3.531
	c-7.768,2.354-16.57,5.021-32.656,5.021c-29.473,0-67.538-23.473-96.975-59.799c-36.876-45.507-57.185-106.713-57.185-172.344
	c0-30.173,11.078-55.069,32.036-71.997c16.955-13.696,40.563-21.872,63.151-21.872c30.455,0,46.347,4.651,61.716,9.148
	c13.979,4.091,27.183,7.955,48.859,7.955s34.88-3.864,48.859-7.955c15.369-4.498,31.261-9.148,61.716-9.148
	c22.588,0,46.195,8.176,63.151,21.872c20.958,16.929,32.036,41.825,32.036,71.997C461.763,329.456,441.454,390.662,404.577,436.169z
	"/>
<path d="M435.679,265.09c-4.436-0.126-8.123,3.342-8.258,7.769c-0.999,32.736-7.454,63.416-19.186,91.189
	c-1.723,4.079,0.187,8.781,4.265,10.505c1.019,0.43,2.076,0.634,3.116,0.634c3.125,0,6.096-1.84,7.389-4.899
	c12.504-29.603,19.382-62.218,20.441-96.939C443.582,268.922,440.104,265.226,435.679,265.09z"/>
<path d="M408.234,218.435c7.489,6.049,12.862,13.796,15.97,23.028c1.128,3.348,4.25,5.46,7.597,5.46c0.848,0,1.711-0.136,2.56-0.421
	c4.196-1.413,6.452-5.96,5.039-10.156c-4.097-12.167-11.193-22.39-21.091-30.384c-3.444-2.782-8.491-2.247-11.274,1.199
	C404.253,210.607,404.79,215.654,408.234,218.435z"/>
<path d="M166.873,446.14c-28.017-19.827-52.22-52.754-66.403-90.339c-1.563-4.142-6.186-6.235-10.331-4.67
	c-4.142,1.563-6.234,6.189-4.67,10.331c20.926,55.452,54.181,85.055,72.142,97.765c1.407,0.995,3.023,1.473,4.624,1.473
	c2.513,0,4.989-1.179,6.55-3.386C171.343,453.7,170.487,448.697,166.873,446.14z"/>
</svg>