<?xml version="1.0" encoding="iso-8859-1"?>
<!-- Uploaded to: SVG Repo, www.svgrepo.com, Generator: SVG Repo Mixer Tools -->
<svg height="800px" width="800px" version="1.1" id="Layer_1" xmlns="http://www.w3.org/2000/svg" xmlns:xlink="http://www.w3.org/1999/xlink" 
	 viewBox="0 0 512 512" xml:space="preserve">
<path style="fill:#D5DCED;" d="M281.653,8.017h-51.307c-9.445,0-17.102,7.656-17.102,17.102v17.102h85.511V25.119
	C298.756,15.673,291.098,8.017,281.653,8.017z"/>
<path style="fill:#C7CFE2;" d="M264.551,8.017h-34.205c-9.445,0-17.102,7.656-17.102,17.102v17.102h34.205V25.119
	C247.449,15.673,255.106,8.017,264.551,8.017z"/>
<path style="fill:#B4FF87;" d="M332.96,503.983H179.04c-18.891,0-34.205-15.314-34.205-34.205V76.426
	c0-18.891,15.314-34.205,34.205-34.205H332.96c18.891,0,34.205,15.314,34.205,34.205v393.353
	C367.165,488.669,351.851,503.983,332.96,503.983z"/>
<path style="fill:#9BF57D;" d="M231.249,434.407c2.533,0.791,5.109,1.17,7.649,1.17c9.501,0,18.506-5.305,22.945-14.185
	l76.96-153.921c3.977-7.952,3.552-17.396-1.122-24.96c-4.674-7.563-12.933-12.165-21.823-12.165h-21.967l19.733-49.334
	c1.448-3.211,2.254-6.774,2.254-10.524c0-14.168-11.464-25.653-25.631-25.653h-0.043h-59.858V76.426
	c0-18.891,15.313-34.205,34.205-34.205H179.04c-18.892,0-34.205,15.314-34.205,34.205v393.353c0,18.891,15.313,34.205,34.205,34.205
	h85.511c-18.892,0-34.205-15.314-34.205-34.205v-35.745C230.655,434.144,230.932,434.309,231.249,434.407z"/>
<polygon style="fill:#FFF082;" points="230.347,170.489 204.693,290.205 256,290.205 238.898,409.921 315.858,256 256,256 
	290.205,170.489 "/>
<path style="fill:#7F8499;" d="M332.96,42.221H179.04c-18.892,0-34.205,15.314-34.205,34.205h222.33
	C367.165,57.535,351.852,42.221,332.96,42.221z"/>
<path style="fill:#707487;" d="M144.835,76.426h85.511c0-18.891,15.313-34.205,34.205-34.205H179.04
	C160.148,42.221,144.835,57.535,144.835,76.426z"/>
<path d="M332.96,34.205h-26.188v-9.086C306.772,11.268,295.504,0,281.653,0h-51.307c-13.851,0-25.119,11.268-25.119,25.119v9.086
	H179.04c-23.281,0-42.221,18.941-42.221,42.221v393.353c0,23.28,18.941,42.221,42.221,42.221H332.96
	c23.281,0,42.221-18.941,42.221-42.221V76.426C375.182,53.145,356.241,34.205,332.96,34.205z M221.261,25.119
	c0-5.01,4.076-9.086,9.086-9.086h51.307c5.01,0,9.086,4.076,9.086,9.086v9.086h-69.478V25.119z M179.04,50.238H332.96
	c11.645,0,21.534,7.642,24.928,18.171H154.112C157.506,57.88,167.395,50.238,179.04,50.238z M332.96,495.967H179.04
	c-14.44,0-26.188-11.748-26.188-26.188V84.443h206.296v385.336C359.148,484.218,347.4,495.967,332.96,495.967z"/>
<path d="M315.858,247.983h-48.017l29.807-74.518c0.988-2.47,0.687-5.269-0.805-7.472c-1.491-2.203-3.978-3.522-6.638-3.522h-59.858
	c-3.781,0-7.046,2.64-7.838,6.336l-25.653,119.716c-0.508,2.368,0.082,4.837,1.604,6.72c1.522,1.883,3.812,2.977,6.233,2.977h42.064
	l-15.795,110.565c-0.556,3.893,1.793,7.614,5.545,8.786c0.792,0.247,1.597,0.366,2.39,0.366c2.968,0,5.783-1.658,7.17-4.433
	l76.96-153.921c1.243-2.485,1.111-5.436-0.351-7.8C321.216,249.422,318.636,247.983,315.858,247.983z M253.821,362.15l10.116-70.811
	c0.328-2.301-0.357-4.63-1.88-6.387c-1.523-1.755-3.733-2.764-6.056-2.764h-41.391l22.218-103.683h41.536l-29.807,74.518
	c-0.988,2.47-0.687,5.269,0.805,7.472c1.491,2.203,3.978,3.522,6.638,3.522h46.887L253.821,362.15z"/>
</svg>