<svg version="1.2" xmlns="http://www.w3.org/2000/svg" viewBox="0 0 2460 2460" width="2460" height="2460">
	<title>4-4</title>
	<defs>
		<linearGradient id="g1" x2="1" gradientUnits="userSpaceOnUse" gradientTransform="matrix(2203.056,0,0,2231.028,128.89,118.006)">
			<stop offset="0" stop-color="#57d0e2"/>
			<stop offset="1" stop-color="#175bbf"/>
		</linearGradient>
	</defs>
	<style>
		.s0 { fill: url(#g1) } 
		.s1 { fill: #6bc836 } 
		.s2 { fill: #ffffff } 
		.s3 { fill: #000000 } 
	</style>
	<g id="&lt;Layer&gt;">
		<g id="&lt;Group&gt;">
			<path id="&lt;Path&gt;" class="s0" d="m2331.9 1207.8c1.1 128.6-22.3 241.2-58 351.5-22.4 69.5-51.8 135.9-88.2 199.2-38.1 66.3-81.4 129.1-127.9 189.8-48.5 63.4-108.5 114.3-171.7 162.1-66.8 50.5-138.8 92.5-212.4 131.8-22.7 12.1-46.3 22.4-69.6 33.3-6.4 3-13.1 5.6-19.8 7.6-76 21.5-151.8 43.6-229.9 55.9-102.8 16.2-204.9 13.2-306.4-11.8-130.4-32.1-252.8-82.1-365.1-156.1-40.8-26.8-81.6-53.7-121.1-82.3-82.4-59.9-153.7-130.9-214.7-212.9-64.7-87-113.6-181.5-149.7-283.6-30.3-85.9-49-174.1-60.6-264-3.8-29.9-4.5-60.2 1-90.2 1.1-6.4 0-12.3-0.9-18.4-6.2-43.2-9.2-86.4-7.6-130 1.7-47.2 7.4-93.7 19.9-139.3 16.7-60.8 34.1-121.3 59.5-179.2 8.9-20.3 19.1-40 30.3-59.2 31.1-52.8 63.4-104.7 100.1-153.9 43.2-57.8 91.2-111.2 145-159.2 39.7-35.5 80.1-70.2 123.1-101.7 60.2-44 125.9-75.8 198.4-93.6 28.4-7 56.5-15.1 84.7-23 7.6-2.1 15.3-4.8 22.4-8.2 51.3-24.2 106.4-33.7 161.6-42.3 32.4-5.1 65.1-9.1 97.8-10.9 74.9-4.2 148.8 3 222 19.8 90.8 20.9 180.6 45.3 267.1 80.3 99.3 40.2 192 92 274.1 161.3 44.9 37.9 82.8 82.7 119.3 128.6 21.5 27.1 41.6 55.3 64.9 81 10.7 11.7 19.4 25.4 27.8 39 38.8 62.7 74.4 127 104.8 194.3 34.6 76.6 56.4 156.7 67.9 239.8 7.2 51.9 12.6 103.9 11.9 144.5z"/>
		</g>
		<g id="&lt;Group&gt;">
			<path id="&lt;Compound Path&gt;" class="s1" d="m704.9 845.3c-1-17.7 2-37 5-56.3 6.4-41.2 11.7-82.6 17.8-123.8 6.3-42.2 17.6-83.3 27.4-124.7 5.7-24.3 9.3-48.7 11.8-73.5 1.3-12.6-1.5-24.7-3.5-36.9-1.4-8.4-7.1-14.4-13.2-19.5-20.7-16.9-43.3-30.8-69.5-37.8-7-1.8-13.7-2.4-21-1.1-16.7 3.1-33.5 2.1-50.4 0.4-16.7-1.6-33.6-2.4-50.4-3.7-3.2-0.3-7.8 0.5-8-4.4-0.2-4.1 3.6-5.5 6.7-7.2 14-7.8 28.7-14 43.9-19.1 26.9-9 53.9-17.7 80.7-26.9 31.1-10.8 62.4-13 94-3 12.1 3.9 24.1 4.4 36.7 3.7 31.8-1.7 63.7-3.6 95.5 2.6 26.5 5.3 51.2 14.4 73.5 29.5 11.8 7.9 23.2 16.4 34.7 24.7 6.4 4.7 12.9 9.4 20.7 11.7 9.2 2.6 17.5 1.1 24.5-5.9 6.9-7.1 12.1-15.3 16.7-23.9 10.1-18.8 18.6-38.3 26.5-58.1 6.7-16.9 16.9-30.8 33-40.5 11.2-6.7 22.4-9.8 35.3-8.7 37.4 3.2 70.7 16.6 99.2 40.9 14.8 12.7 28.8 26.4 42.5 40.3 22 22.2 46.4 41.2 72 58.9 19.9 13.7 42.2 22.6 64.3 31.7 9.6 4 20.9 2.4 30.8 7.1 6.6 3.1 10.5 6.6 14.3 13.6 15.3 27.9 28.1 57.1 47.9 82.7 22.1 28.5 47.8 52.1 79.4 69.7 24.8 13.8 48.7 29 73 43.7 9.9 6 19.2 12.9 27.1 21.4 6.2 6.5 11.4 13.6 14.7 21.9 9.4 23.1 1.5 44.8-20.8 56-10 5-20.5 4.8-31.1 1.5-9.3-2.8-18.6-6.2-28.2-7.4-12-1.5-18.7 5.4-17.7 17.3 0.8 9.7 2.9 19.3 4.7 28.8 4.1 21.1-8.4 40.5-29.8 45.4-8.6 2-17.4 3-26.2 4.6-39.4 7.2-70.2 27.1-94 59.7-19.5 26.7-36.4 54.5-49.6 84.8-6.7 15.2-12.7 31.5-30.2 38.7-4.4 1.8-5.7 6.6-7.5 10.6-16.7 36.3-34.6 72.1-40.4 112.3-1.4 9.5-5.8 16.5-13.1 22.1-6.3 4.8-14.1 4.3-18.9-1.8-7.7-9.7-14.7-20-22.2-29.9-15.7-20.8-34.5-37.9-57.5-50.6-27.4-15-55.2-17.7-84.4-6.5-31.9 12.2-60.2 30.5-85.6 52.9-25.1 22.2-18.9 53.3 1.5 75.7 13.4 14.6 30.6 24.5 50.8 26.9 14 1.8 28.2 3 42.4 3.2 24.4 0.4 42.5 9.5 52.4 33.2 8.5 20.2 21.9 36 43.5 43.9 15.6 5.6 26.9 16.9 35.5 31 8.3 13.6 16.6 27.2 25 40.8 12 19.6 22.2 40.5 40.8 55.3 1.9 1.6 3.4 4.1 4.4 6.4 1.7 3.9 5.4 7.8 3 12.3-2.9 5.5-8.2 5-13.8 4.9-43-0.9-80.7-19.3-118.8-35.7-48.1-20.8-93-47.9-137.9-74.8-35.1-21-70.9-40.4-109.4-54.3-6.7-2.4-13.2-5.4-19.7-8.2-34-14.5-58.7-39.1-76.7-71-9.2-16.3-15.7-33.8-22.4-51.1-4.8-12.5-9.6-24.9-14.9-37.1-14.7-34.1-37.3-62.2-66.5-85q-10.5-8.2-21.1-16.3c-50.9-39.1-82.4-98.1-79.2-168.1zm692.4-253.8c-0.8-16.6-4.4-33.8-16.2-48.1-11.8-14.3-16.5-31.1-19-48.9-0.8-6.1-1.2-12.3-2.1-18.5-1.4-9.7-4.3-19-9.4-27.5-9.6-16-20.8-19.8-38-12.1-23.6 10.5-45.6 23.9-65.5 40.3-12.9 10.7-24.6 23-34.4 36.8-7.2 10.3-12 21.5-14.6 33.9-1.9 9.7 0.5 17.7 7.7 24 8.6 7.6 17.3 15.2 26.6 22 40.9 29.8 67.3 69.7 82.9 117.4 3.2 10.1 6.9 20.1 11.1 29.8 8.6 20 25.7 30.8 44.5 39.4 2.7 1.2 5.6-0.9 5.5-3.7-0.2-4.3-1.1-8.7-2.4-12.9-9.4-31.6-8.1-63.1 0.7-94.4 3.8-13.6 8.7-26.9 14-40 4.7-11.7 7.9-23.5 8.6-37.5z"/>
			<path id="&lt;Path&gt;" class="s1" d="m1342.5 2255.1c-4.4 0-8.9 0.3-13.3-0.1-22.3-2-37.6-19-36-41.3 1.2-17.8 5.9-34.9 14.7-50.7q16.3-29.2 37.6-54.8c23.9-28.7 49.3-55.9 76.6-81.4 23.4-21.8 46-44.4 66.8-68.8 8.1-9.5 15.6-19.3 20.8-30.7 13-28.7 2.9-58-25.5-71.7-10.3-5-21.4-8.6-32.3-12.2-32.4-10.6-61.8-26.7-88.5-47.7-44.9-35.4-57.3-81.7-36.2-135.2 8.5-21.7 20.9-41 35.2-59.3 14.3-18.1 28-36.8 43.3-54 15.2-17.2 15.6-34.9 5.7-54-4.9-9.3-10.9-18.2-16.8-27-2.4-3.5-2.2-6.7-0.1-9.6 13.9-18.6 28.7-36.5 49.8-47.2 31.8-15.9 63-32.7 91.7-53.9 2.8-2.1 6-3.8 9.1-5.5 26.6-15 45.1-13.5 68.1 6.4 6.6 5.8 12.4 12.7 18.1 19.5 13.4 16.1 30 24.4 51.2 22.6 13.3-1.1 26.6-2.3 39.8-2.8 13.3-0.4 26.6-0.3 39.9 0.2 20.6 0.8 37.5 10 51.2 25 6.6 7.2 13.4 14.3 18.9 22.3 17.9 26 42.7 41.3 72 52 28 10.2 55.1 12.2 83.3 3.6 4.3-1.3 8.6-2.6 12.9-3.5 6.9-1.3 14-2.3 21-3.6 14.3-2.6 24.8 3.7 30.5 15.9 7.5 16.1 13.5 33 7.9 51.4-2.1 6.8-3.5 13.8-5.8 20.5-16.3 48.8-33.7 97.2-58.1 142.8-14 26.2-22.6 53.9-22.5 84 0.1 22.6-9.4 40.9-25.1 56.8-20.5 20.6-45.1 35.3-71.9 44.5-62.2 21.4-112.9 60.3-158.2 105.4-72.3 72.1-153.6 131.4-240.7 183.5-26.6 15.9-53.5 31.6-81.7 44.6-27.2 12.6-32.9 14.1-53.4 14z"/>
			<path id="&lt;Path&gt;" class="s1" d="m502.1 1458c-4.5 20.1-5.6 42.2-5 64.5 1 41.2 10.5 80.8 24.3 119.4 7.4 20.6 21.3 36.7 38.3 50.2 11.9 9.3 24 18.4 35.9 27.6 15.5 12.1 28.1 27 39 43.4 12.6 19 16.2 39.3 6.8 60.6-7.1 16.3-14.9 32.2-22.7 48.1-6.7 13.6-12.6 27.2-15.9 42.2-4.1 18-2.1 35 4.3 52.1 7.5 20.2 18.8 38.2 31.2 55.5 15.5 21.8 28.9 44.7 38.1 69.9 4.9 13.4 8.5 27.1 8.9 41.5 0.3 11-2.2 20.9-9.3 29.7-9.2 11.3-13.4 11.9-25.1 2.3-2-1.7-3.8-3.7-6.1-4.9-68.3-36.4-125-87.1-175.8-144.6-58.7-66.6-114.9-135.2-168.6-206-30.9-40.6-54.3-85.2-73.4-132.2-8.3-20.5-15.8-41.4-23.4-62.3-3.5-9.7-9-18.9-3.2-30.3 2.7-5.4-2.2-11.8-4.5-17.5-16-40.5-28.7-82.1-36.7-124.9-4.7-25.2-7.7-50.8-11.4-76.3-0.2-1.7-0.5-3.6-0.1-5.3 4.7-20.6-2-40.2-4.8-60.2-8.4-58.2-10.5-116.6-8.5-175.3 0.3-9.6 2.7-19.3 4.9-28.7 2-8 1.4-17.5 10.4-22.2 8.5 5.7 8.2 15.5 10.1 23.7 3.3 13.8 5.2 28 6.7 42.1 3.8 36.1 5.6 72.6 10.9 108.5 10.7 73 26.6 144.8 58.9 212 5.7 11.9 12.2 23.6 18.5 35.3 12.6 22.9 33.7 26.6 52 22.1 28.6-6.9 56.1-16.5 81.1-32.5 21.8-13.9 42.2-29.5 59.5-48.8 5.5-6.1 10.8-12.6 19.8-11.5 11.4 1.5 22.6 4.6 31 13.4 4.7 4.9 4.1 11.4 3.9 19.4z"/>
			<path id="&lt;Path&gt;" class="s1" d="m2319.8 1177c0 17.7 0.1 35.4-0.1 53.2-0.1 8.8 0.5 16.8 3.7 25.7 9.6 26.4-9.3 62.5-35.9 71.3-12 3.9-24.6 2.2-31.8-11.6-4.1-7.9-7.7-16-11.1-24.1-15.2-36.2-37.3-66.3-72.6-85.5-6.9-3.7-13.1-9-19.7-13.5-22.2-14.9-32.7-36.6-35.7-62.5-2.5-22.2-0.4-44.2 2.9-66.2 1.5-9.6 3.3-19.2 4.1-28.9 4.1-48.7-6.6-93.4-37.1-132.5-16.9-21.6-32.3-44.6-50.9-64.8-25.9-28.3-38-61.4-41.4-98.6-3-33.6-1.5-67.3-0.6-100.9 1.6-56.1-1-111.6-19.4-165.5-6.3-18.3-9.6-37.7-14.3-56.7-0.4-1.6-0.8-3.5-0.5-5.1 0.6-3.3 3.6-4.1 6-3.2 3.2 1.3 6.2 3.5 8.8 5.8 10.7 9.5 19.8 20.5 27 32.7 8.7 14.7 19.5 27 32.8 37.8 31.2 25.4 56.5 56.1 77.6 90.4 50.5 82.6 94.5 168.5 133 257.2 24 55.5 43.2 112.4 55.8 171.6 12.2 57.4 21.6 115 19.4 173.9z"/>
		</g>
		<g id="&lt;Group&gt;">
			<path id="&lt;Path&gt;" class="s2" d="m1056.4 311.6c12.6 1.1 29-1.2 34.4 13.4 4.3 11.4-6.9 21.3-14.7 29.5-7.3 7.7-15.6 14.5-24.2 20.7-49 35.3-96.2 72.7-141 113.4-130.6 119-229.8 259.9-298.6 422.7-44 104.4-75.4 212.1-91.9 324.2-5.6 37.7-8.3 75.8-8.4 114-0.5 96.8-0.8 193.5 3.3 290.2 1.9 45.1 3.9 90.4 12.8 135 4 20.2 10.9 39.2 18.8 58 1.1 2.5 1.2 5.7-1.6 7-2.1 1-5.3 1.3-7.2 0.4-10.7-5-19.1-12.9-26.3-22-13.4-16.8-23.5-35.4-32-55.1-17.9-41.7-29.4-85.5-40.3-129.4-17.1-69.8-31.1-140.3-41.3-211.4-9.5-65.3-10.9-130.8-3.5-196.4 28.5-251.6 126.7-473 289.8-665.8 68.2-80.5 148.1-147.9 240.2-200 28.6-16.2 58.5-29.6 89.6-40.4 13.5-4.7 27.3-7.4 42.1-8z"/>
		</g>
		<g id="&lt;Group&gt;">
			<path id="&lt;Compound Path&gt;" class="s3" d="m2348 1224c-1.4 251.4-71.7 481.6-218.4 686.1-152.2 212.3-355 354.5-608.4 422.1-108.9 29-219.9 40.5-332.3 33.6-188.6-11.7-364-67.3-523.9-168.1-269.5-170-440.3-412-519-719.8-29.7-116.2-39.7-234.7-30.9-353.9 19.3-262.2 115.9-492.3 295.9-685.1 152.1-162.9 338.7-266.7 556.1-315.5 86.8-19.5 174.6-30.9 263.7-31.1 199.8-0.5 386.4 49.1 557.8 151.7 257.9 154.4 431 375.8 516.4 664.6 27.7 93.6 44.1 201.9 43 315.4zm-370-769.8q-0.7-0.2-1.3-0.4 0.6-0.2 1.2-0.5-0.4 0.3-0.8 0.7c0.7 1.6 1.5 3.3 2.3 4.8 34.7 69.8 45.8 142.9 32.4 219.9-3.7 20.9-7.2 41.9-6.3 63.5 1 24.9 8.3 47.1 25.3 65.5 12.1 13 24.5 25.7 36.9 38.4 14.3 14.6 27.8 29.9 38.8 47.2 26.9 43 39.2 89 28.3 139.7-1.7 7.8-2.3 15.8-3.6 23.7-5.2 32.2-0.9 63.7 8.2 94.6 5.2 17.7 15.1 32 32.6 40.1 5.6 2.5 10.8 6 16.3 8.9 31.1 16.2 53.4 40.6 67.7 72.5 4.7 10.5 9.6 21 15.3 31 8.7 15.4 17.7 15.8 28.5 2.3 4.5-5.8 7.3-12 7.4-19.5 0.2-16 1.4-31.9 1-47.9-1.8-87.1-11.4-173.4-31.5-258.3-46-194.6-137.9-364.1-276.7-508-6.6-6.9-12.2-15.3-22-18.2zm-1296.7-171.5c8.4 2.1 15.9-0.7 23.5-2.4 25.3-5.7 50.7-7.9 76.6-3.1 34.1 6.2 68.7 8.1 103.4 6.7 31.5-1.3 59.4 8.7 84.1 27.7 13.4 10.2 26.4 21 39.3 31.9 8.2 6.8 16.4 13.5 26.4 17.8 5.7 2.5 11 1.2 14.2-3.5 4.9-7.3 9.7-15 12.8-23.2 4.6-12.4 7.8-25.4 11.5-38.1 3.8-12.8 7-25.7 11.3-38.3 4.7-13.8 13.7-24.4 25.5-33.2 18.3-13.8 38.4-17.1 60.4-14.2 52.8 6.9 98.9 27.7 136.2 66.1 18.6 19.1 36.4 38.9 54.3 58.5 11.4 12.5 23 24.8 36.7 34.8 22.7 16.7 47.2 28 76.5 25.3 4.3-0.4 8.8 0.2 13.2 0.4 12.9 0.5 21.8 6.8 26.8 18.5 5.7 13.1 9.5 26.8 11.9 40.8 4.4 26.9 19.2 47.4 40.2 63.7 8.4 6.5 17.2 12.6 26.6 17.5 32.2 16.8 64.7 33.2 97.2 49.4 16.8 8.3 32.5 18.2 46.8 30.3 12.1 10.1 19.4 23.1 23 38.1 4.7 20.1 4.3 40.7-0.5 60.7-7.8 32.6-33.8 47.6-66.6 39.7-3.5-0.9-6.9-1.9-10.4-2.6-5-0.9-10.1-6.3-14.8-2.4-5.3 4.6 0.5 9.8 2.2 14.1 4.5 11 6.1 22.2 5.6 33.9-0.9 18.9-8.4 28.9-26.4 35.7-9.2 3.5-18.9 4.6-28.6 5.2-12.4 0.8-24.8 2.1-37.2 2.4-19.9 0.5-35.6 9.2-49.5 22.6-15 14.5-25.8 31.7-33.5 50.8-4.3 10.7-8.3 21.5-11.4 32.6-8.6 31.6-24.1 58.9-46.8 82.4-25.7 26.5-38 59.5-43.7 95.2-3.5 22-6.1 44-5.3 66.3 0.8 23.1-12.7 22.8-27.4 14.8-3.9-2.1-7.5-4.8-11-7.4-18.9-13.7-35.2-29.9-48.4-49.1-9.6-13.9-18.8-28-28-42.1-23.9-36.9-23.9-37-66.5-29.6-23.7 4.1-46.5 11.1-68.5 20.7-16.6 7.3-30.7 17.9-41.6 32.4-4.8 6.4-8.5 13.8-5.4 22.3 7.6 20.8 20.6 37.3 39.8 48.3 15.1 8.8 30.7 6 46.2 0.2 5-1.9 10.1-3.6 15.3-4.4 7.9-1.1 15.9-1.6 23.8-1.7 11.5-0.3 18.2 6.6 21 16.8 1.9 6.8 2.7 14 2.7 21.1-0.1 14.6 7.5 23.1 20.3 27.9 7.5 2.7 15.1 5.4 22.8 7.2 11.3 2.7 18.9 9.3 24.2 19.2 2.5 4.7 5.1 9.4 6.9 14.4 12.2 32.4 33 58.4 59.3 80.6 8.8 7.4 17 15.4 23.3 25.4 5.8 9.1 8 9.3 16.3 2.5 21.4-17.3 42.4-35.1 63.8-52.4 20.9-16.9 45-28 70.4-36.6 15.8-5.5 31.1-5.2 46.8 0.6 12.6 4.7 24.3 10.8 35.4 18.1 9 5.9 17.7 12 26.5 17.9 11.3 7.5 23.6 11.6 36.9 14.3 19.5 3.9 38.9 2.9 58.3 1.3 28.4-2.4 52.5 6.2 72.1 26.9 7.9 8.4 15.4 17.1 22.7 26 9 11.1 18.4 21.7 29.3 30.9 16.9 14.3 36 22.6 58.5 21.1 15-1.1 30.1-2.2 45-4.3 13.3-1.9 26.6-3.1 39.8-1.7 32.5 3.4 45.2 18.9 51.4 42.2 5.5 21 6 42.1 2.4 63.4-5.2 31.1-16.8 59.6-33.7 86.1-26 40.9-46.5 83.8-48.9 133.4-0.1 0.9-0.2 1.7-0.4 2.6-7.3 46.1-32.3 79.9-72.7 102.6-18.6 10.4-38 19.1-58.2 25.9-25.5 8.7-48.3 22-69.8 38.1-24.2 18.2-45.7 39.3-66.5 61.3-24.4 25.8-48.3 52-73.9 76.6-58.2 55.8-126.7 96.9-197.6 134.1-21.2 11.1-42.8 21.5-64.8 30.9-17.9 7.6-36.6 13.4-56.6 13.5-17.1 0-31.2-5.9-43.2-17.5-22.9-22.3-32.6-48.4-20.8-79.7 4.1-10.7 8.6-21.4 14-31.5 9.7-18.1 22.6-33.9 36.9-48.7 31.5-32.6 66.2-61.7 100-91.8 21.2-19 41.3-39 59-61.4 10-12.6 18.4-26.2 21.7-42.2 3.8-18.9-2.4-33.2-19.1-42.6-6.1-3.4-12.9-5.8-19.6-8.2-18.3-6.7-36.8-12.8-55.1-19.8-19.1-7.2-38.1-15.4-53-29.8-54.1-52.5-60.6-120.2-36.4-176 6.7-15.4 14.7-30.3 24.5-44.1 11.4-15.8 23.2-31.4 34.7-47.2 7.8-10.8 16.3-21.1 21.4-33.6 4.6-11.1-0.1-19.1-12.2-20.9-3.5-0.5-7.1-0.6-10.6-0.3-21.6 1.6-42.3-3.4-62.9-9-34.8-9.3-65.4-27.4-95-46.8-26-17.1-51.2-35.3-76.3-53.5-37.8-27.5-78.4-48.4-124.9-56.7-7.8-1.4-15.6-3.4-23.4-5.2-21.9-5.2-41.5-14.6-59-29.1-21-17.4-37.3-37.8-48.5-62.5-11.1-24.3-19.1-49.7-27.6-74.9-13.8-40.9-38.5-73.5-73-99.1-15-11.1-29.5-22.9-44-34.6-30.1-24.3-48.9-55.8-57.3-93.5-7.2-32.2-11.1-64.8-9.2-97.8 2.4-40.7 8-81.1 16.7-121.1 10.6-48.7 27.2-95.5 43.2-142.5 9.2-26.9 17.3-54 20.2-82.5 3.8-37.8-14.8-60.8-42.5-71.7-6.6-2.6-13.2-5.2-20-7-37.9-9.9-76-18-115.6-14.2-14.1 1.3-28.2 3.2-42.4 4-9.5 0.5-16.8 4.2-23.5 10.7-19.1 18.5-39 36.2-57.7 55.2-133.5 135.8-225.7 295.3-273.5 480-6.7 25.7-11.8 51.9-17.2 78-2 9.4-3.6 18.5 5.5 26.8 7.2 6.7 7.8 17.6 9.7 27.2 8.4 42.7 11.1 86.2 15.8 129.4 6 55.6 11.8 111.1 26.7 165.3 8.5 30.8 17.7 61.4 32.6 89.9 7.5 14.2 16 27.6 28.5 38.1 13.1 11.1 27.8 14.7 44.7 10.7 10.7-2.5 19.9-7.4 28.4-14 18.3-14.1 36.4-28.4 54.5-42.6 17.6-13.7 36.3-25.5 57.4-33.2 9.3-3.5 18.7-5.8 28.6-4.8 14.8 1.4 22 8.6 24.2 23.4 2.1 14.3 0 28.4-1.5 42.5-2 18.5-4.4 37-6.7 55.5-3.5 27.5-1.7 54.9 2.9 82.2 5 29.4 19 53.1 45.6 68.5 12.2 7.1 24.1 15 35.8 23 8 5.5 15.9 11.4 23.2 17.8 48.5 43.1 57.1 94 25.6 150.7-4.7 8.5-9.7 17-15.1 25.1-18.8 27.7-18.9 56.2-5 85.8 8.7 18.6 19.1 36.1 30.2 53.2 7.7 11.9 15.9 23.6 22.6 36.1 15.8 29.2 29.3 59.1 18.4 93.7-1.4 4.6 0.5 8.7 4.9 11.2 6.2 3.5 12.3 7.2 18.5 10.7 49.6 27.7 101.3 51 154.9 70.1 118.9 42.4 241.2 64.5 367.7 64.3 81.2-0.2 161.2-7.3 240.1-26.4 193.5-46.9 361-140.9 503.2-279.7 89.8-87.7 160.9-189.1 215.3-302.2 53.5-111.3 87.1-228.5 100.5-351.3 1.1-9.5 0.3-11.2-9.2-11.9-24.6-1.7-41.3-14.1-51.5-36.1-4.1-8.9-8.8-17.5-12.8-26.4-12.6-27.7-31.8-48.9-59.9-61.5-4.1-1.8-7.7-4.4-11.7-6.4-21.7-11-35.8-28.4-44.1-51-15.2-41.4-23.5-83.6-17.1-127.9 1.7-12.3 2.4-24.7 3.5-37.1 2.3-27.2-2.3-53-14.8-77.3-9.3-18.3-21.2-34.8-35.2-49.9-13.3-14.3-26.8-28.4-39.5-43.2-32.7-37.9-44-82.2-38.4-131.4 1.8-14.9 4.5-29.8 6.4-44.8 6.7-54.3 5.4-108-14.5-160-9.1-24.2-21.3-46.8-33.4-69.5-17-31.9-38.9-59.2-70.3-78.1-3.8-2.3-7.3-5.1-10.9-7.6-168.6-116.4-354.6-184.4-558.9-202.3-107.9-9.4-214.6-2.8-319.8 23.1-94.4 23.3-184 58.8-268.8 106.4-6.6 3.7-15.2 5.3-18.4 14.6zm673.7 862.1c1.6-11.4 3.6-23.4 5-35.4 4.7-40.9 18.9-77.4 48.1-107.2 20.2-20.6 35.4-44.1 43.9-71.9 3.6-11.9 9-23.2 13.6-34.7 7.1-17.5 17.3-33.2 30.2-46.7 23.8-25.1 50.9-44.1 87.3-45.3 9.7-0.3 19.4-1.7 29.1-3.2 7-1.1 13.9-2.7 20.7-4.8 5.8-1.8 8.1-6.9 7-12.6-1.2-6-3.4-11.9-5.5-17.7-2.1-5.8-5.2-11.4-6.8-17.3-4.9-18.4 4.6-31.4 23.8-33 8.9-0.8 17.6 0.3 26.2 3.1 6.7 2.1 13.8 3.8 20.8 4.3 10.4 0.8 18.4-3.1 23.8-13.2 6.6-12.5 6.7-25.5 6.2-38.9-0.5-12.3-5.9-22.3-16.4-28.8-9.7-6.1-19.8-11.9-30.1-16.9-20.7-10.2-41.8-19.6-62.4-29.8-31.9-15.8-63-32.6-88.3-58.4-17.4-17.7-28.5-38.3-32.5-62.7-1.7-10.5-3.5-21.1-5.8-31.4-2.4-10.8-6-13.9-16.5-12.9-32.6 3.1-61.1-7.4-87.4-25.5-22.8-15.6-42.2-35.1-60.5-55.8-17.6-19.9-35.8-39.5-56.5-56.3-34.3-27.8-73.6-41.7-118.1-40.8-14.8 0.3-25.6 6.9-33.1 18.9-4.2 6.6-7.5 14.1-9.9 21.6-4.4 13.5-7.9 27.3-11.8 40.9-3.7 12.8-8 25.3-14.5 37.1-5.8 10.3-13.3 18.8-23.5 24.8-8.8 5.1-17.7 6.6-28 3.4-12.1-3.8-23-9.2-32.8-17q-21.8-17.5-43.7-34.9c-20.8-16.8-44.1-25.1-71.4-23.9-30.1 1.4-60.2-0.1-90.2-5-26.3-4.3-52.8-3.8-79.2 2.8-15.4 3.9-31.5 5-47.3 7-25.7 3.2-50.6 9.1-73.9 20.6-3.6 1.8-8.1 2.8-7.6 8.9 27.8-3.9 54.7 1.6 81.9 5.5 18.5 2.7 36.6 7.2 53.7 14.8 42.1 18.7 64.7 51 66.2 97.4 0.4 13.3-0.3 26.5-2.1 39.8-5.3 39.8-17.4 77.9-29.4 115.9-15.5 49.2-27.4 99.2-34.4 150.2-4.8 35.2-6.3 70.5-1.7 106.1 5.6 43.4 22.6 79.8 58.3 106.5 12.8 9.5 25.1 19.7 37.7 29.6 36.5 28.5 63.5 64.1 79.2 107.9 5.7 15.9 11.1 31.9 17.2 47.6 4.4 11.6 9 23.2 14.7 34.2 16.2 31.6 40.5 53.5 76.5 60.2 5.2 1 10.4 2.4 15.5 3.7 32.7 8.3 64.9 17.8 94.5 34.8 19.3 11.1 37.5 23.7 55.5 36.7 38.1 27.5 76.8 54.2 119.3 74.8 14.4 7.1 29.3 12.7 44.9 16.3 9.5 2.2 19.2 3.5 28.9 4.2 8.7 0.6 12.6-6.4 9.1-14.2-4.6-10.2-13.4-16.5-21.5-23.2-27.9-23.1-50.2-50.1-61.1-85.3-3-9.5-9.3-14.6-18.6-16.6-12.3-2.7-23.4-7.9-33.6-15.3-15.1-11-26-24.1-25-44.2 0.1-3.5-0.7-6.9-5.4-9.2-7.6 2.6-15.9 5.5-24.3 8.2-13.9 4.5-27.8 5.1-41.9 0.7-36.3-11.5-61-35.9-74.5-70.6-14.9-38.3-2.7-60 16.9-77.2 2.6-2.3 5.2-4.7 8-6.9 43-33.5 93.1-46.1 146.2-50.1 0.9-0.1 1.8 0.1 2.7 0.1 18.8 0.5 34.5 7.4 46 22.7 7.9 10.6 15.6 21.5 23.4 32.2 10.9 15.1 21.8 30.3 32.9 45.2 2.5 3.4 5 7.6 12.3 6.1zm59.8 317.1c22.4 26.5 18.9 52.6 5.5 78.6-6.5 12.5-15.2 23.9-23.3 35.6-9.6 13.8-19.6 27.4-29.2 41.3-8.6 12.4-15.4 25.9-20.8 40.1-6.5 16.9-8 34.4-4.5 52.3 8 40.9 28.5 72.2 68.6 88.2 19.8 7.8 39.5 15.7 59.4 23.3 12.5 4.8 24.6 10.1 35.5 17.9 20.1 14.3 31 33.5 31.9 58.5 0.9 27.5-6.6 52.5-21.1 75.7-9 14.3-20.4 26.8-31.9 39.1-23.8 25.3-50.3 47.6-75.8 71-20.2 18.6-40.3 37.4-59.7 56.9-18.3 18.3-33.1 39.1-43.5 63.2-4.9 11.6-2.1 20.6 5 29.5 7.3 9 17 12.1 28.3 11.4 17.2-1 33.3-6.1 48.6-13 88.7-40 171.8-88.6 243.2-155.8 29.1-27.4 54.5-58.2 82.3-86.9 41.8-43.2 87.7-80.3 146-99.1 15.3-4.9 29.7-11.9 43.1-20.6 33.5-21.6 57.6-49.7 61.3-91.5 0.6-7.1 2.5-14 3.5-21 4.4-31.2 14.5-60.3 31-87.1 9.3-15.1 18.7-30.2 27.6-45.5 14.9-25.9 24.4-53.5 21.2-83.8-2.5-22.7-4.5-32.8-36.1-28.6-14.1 1.8-28.1 4.3-42.1 6.8-47.5 8.6-87.6-5-120.3-40.4-7.8-8.5-14.9-17.6-22.3-26.5-5.7-6.8-11-13.9-17-20.4-11.4-12.4-24.9-19.4-42.5-17.9-13.2 1.2-26.6 1-39.9 1.3-32.1 0.8-61.2-8.1-87.2-27.3-8.5-6.3-17.5-12.2-26-18.5-23.4-17.3-47.1-17.9-72.1-3.2-13.8 8.1-26.9 17-39.3 27.2-28.1 23-54.3 48.4-87.4 69.2zm-1260.4-343.9c-8.8 6.9-7 15.6-7.4 23.1-4.2 80.8-1.9 161.3 11.1 241.3 19.2 117.3 55.5 229 110.2 334.6 87.7 169.4 209.2 309.2 366.7 417.3 6.6 4.6 13.3 8.9 20 13.2 3.1 2 7.4 3.1 9.8 0.6 2.1-2.2 2.9-6.5 2.7-9.7-0.5-11.8-4.6-22.7-10.1-32.8-8.5-15.6-17.9-30.6-27.2-45.7-10.1-16.7-21.2-32.8-30.7-49.8-27.7-49-26.8-98 1.8-146.5 5.4-9.1 11-18.2 15.9-27.7 14.9-28.7 11.4-54.3-10.7-78-8.5-9.1-18.2-17-28.8-23.6-13.6-8.3-27.4-16.4-40.9-24.9-26.6-16.7-45-40.4-53.6-70.4-9-31.6-12.5-64.3-9.9-97.4 2.1-27.4 5.3-54.7 11.5-81.5 1.1-5.1 3.1-10.4-0.8-15.7-2.4 0.1-5.2-0.3-7.5 0.5-5.7 2.3-11.5 4.7-16.8 7.7-17.2 9.6-31.9 22.5-47 34.8-14.5 11.7-28.6 24.1-44.3 34-44.6 28.2-87.8 22.5-120.4-18.3-13.3-16.7-24.6-34.6-33.4-54.1-20.2-44.8-33.9-91.5-42.3-139.6-9.5-54.3-13-109.2-16.2-164-0.5-8.7-1-17.3-1.7-27.4z"/>
			<path id="&lt;Compound Path&gt;" class="s3" d="m1410 600.7c1.1 13.6-2.4 27-7.9 40.4-5.4 13.1-9.9 26.7-13.4 40.4-6.6 25.3-6.8 51 0.3 76.3 3.7 13 4.7 26.2 3.4 39.5-0.9 8.8-8.9 14.7-17 12.1-7.5-2.4-15-5.8-21.5-10.1-31.5-20.5-49.2-50.3-56.7-86.7-2.3-11.3-4.2-22.7-6.5-34-3.9-20.2-13.9-35.8-32.3-46.3-20.1-11.5-38.5-25.4-55-41.8-14.7-14.6-22-32-19.9-52.9 0.5-5.2 1.6-10.6 3.5-15.4 14.4-36.6 37.9-66 70.5-88 20.5-13.7 42.8-20.7 68-17.7 27.2 3.2 43.3 19 45.8 46.6 0.6 7 0.8 14.2 0.1 21.2-1.4 14.2 2.8 26.3 12.1 36.8 20 22.4 27.6 49.1 26.5 79.6zm-50.2 166c-0.2-3.2 0.1-6.8-0.7-10.1-6.8-28.2-6-56.3 1.2-84.1 4.7-18 10.3-35.7 17-53 5.4-13.9 6.3-27.6 3.2-41.6-2.9-13.1-7.7-25.5-16.8-35.7-14.9-16.8-21-36.5-19.7-58.8 0.4-5.3 0.2-10.7-0.6-15.9-1.8-11.8-7.4-17.1-19.1-18.5-11.6-1.4-22.8 0.1-33.9 4.3-31.5 12.1-52.8 33.8-65.7 65.1-12 29.2-11.4 36.9 11.4 58.1 3.9 3.6 8 7.1 12.3 10.2 9.2 6.9 18.6 13.5 28 20.2 22.6 16.1 37.3 37.3 41.9 65.1 1.9 11.3 3.9 22.7 5.7 34 3.4 20.4 10.2 39.4 24 55.3 2.8 3.3 5.9 6.7 11.8 5.4z"/>
		</g>
	</g>
</svg>