<?xml version="1.0" encoding="utf-8"?>
<!-- Uploaded to: SVG Repo, www.svgrepo.com, Generator: SVG Repo Mixer Tools -->
<!DOCTYPE svg PUBLIC "-//W3C//DTD SVG 1.1//EN" "http://www.w3.org/Graphics/SVG/1.1/DTD/svg11.dtd">
<svg xmlns="http://www.w3.org/2000/svg" xmlns:xlink="http://www.w3.org/1999/xlink" version="1.1" id="Layer_1"  width="512" height="512" viewBox="0 0 512 512" enable-background="new 0 0 512 512" xml:space="preserve">
<g id="gum_automat">
	<g>
		<path fill="#E5E8EC" d="M426.657,170.658c0,94.264-76.405,170.668-170.646,170.668c-94.264,0-170.669-76.404-170.669-170.668    c0-94.248,76.405-170.653,170.669-170.653C350.252,0.005,426.657,76.41,426.657,170.658z"/>
	</g>
	<g>
		<path fill="#4FC0E8" d="M309.347,149.33c0,17.671-14.344,31.999-32,31.999c-17.679,0-32.007-14.328-32.007-31.999    c0-17.672,14.328-32,32.007-32C295.003,117.331,309.347,131.658,309.347,149.33z"/>
	</g>
	<g>
		<path fill="#FB6D51" d="M266.668,149.33c0,17.671-14.312,31.999-32,31.999c-17.671,0-31.999-14.328-31.999-31.999    c0-17.672,14.328-32,31.999-32C252.355,117.331,266.668,131.658,266.668,149.33z"/>
	</g>
	<g>
		<path fill="#AC92EA" d="M373.345,277.328c0,17.671-14.343,31.999-31.998,31.999c-17.688,0-32-14.328-32-31.999    c0-17.672,14.312-32,32-32C359.002,245.328,373.345,259.656,373.345,277.328z"/>
	</g>
	<g>
		<path fill="#9ED36A" d="M352.002,234.656c0,17.688-14.312,32-31.999,32c-17.656,0-32-14.312-32-32    c0-17.671,14.344-31.999,32-31.999C337.69,202.657,352.002,216.985,352.002,234.656z"/>
	</g>
	<g>
		<path fill="#FECD57" d="M330.659,192.001c0,17.672-14.312,32-32,32c-17.656,0-31.991-14.328-31.991-32    c0-17.671,14.335-31.999,31.991-31.999C316.347,160.002,330.659,174.33,330.659,192.001z"/>
	</g>
	<g>
		<circle fill="#FECD57" cx="213.34" cy="192.001" r="32"/>
	</g>
	<g>
		<path fill="#AC92EA" d="M288.003,192.001c0,17.672-14.312,32-31.991,32c-17.672,0-32-14.328-32-32    c0-17.671,14.328-31.999,32-31.999C273.69,160.002,288.003,174.33,288.003,192.001z"/>
	</g>
	<g>
		<path fill="#EC87C0" d="M309.347,234.656c0,17.688-14.344,32-32,32c-17.679,0-32.007-14.312-32.007-32    c0-17.671,14.328-31.999,32.007-31.999C295.003,202.657,309.347,216.985,309.347,234.656z"/>
	</g>
	<g>
		<path fill="#4FC0E8" d="M330.659,277.328c0,17.671-14.312,31.999-32,31.999c-17.656,0-31.991-14.328-31.991-31.999    c0-17.672,14.335-32,31.991-32C316.347,245.328,330.659,259.656,330.659,277.328z"/>
	</g>
	<g>
		<path fill="#ED5564" d="M224.012,234.656c0,17.688-14.327,32-31.999,32s-31.999-14.312-31.999-32    c0-17.671,14.327-31.999,31.999-31.999S224.012,216.985,224.012,234.656z"/>
	</g>
	<g>
		<path fill="#5D9CEC" d="M266.668,234.656c0,17.688-14.312,32-32,32c-17.671,0-31.999-14.312-31.999-32    c0-17.671,14.328-31.999,31.999-31.999C252.355,202.657,266.668,216.985,266.668,234.656z"/>
	</g>
	<g>
		<circle fill="#FECD57" cx="170.669" cy="277.328" r="32"/>
	</g>
	<g opacity="0.2">
		<path fill="#FFFFFF" d="M256.012,0.005c-3.594,0-7.141,0.125-10.672,0.344c89.288,5.5,160.005,79.639,160.005,170.309    S334.628,335.482,245.34,340.982c3.531,0.219,7.078,0.344,10.672,0.344c94.24,0,170.646-76.404,170.646-170.668    C426.657,76.41,350.252,0.005,256.012,0.005z"/>
	</g>
	<g>
		<circle fill="#46CEAD" cx="213.34" cy="277.328" r="32"/>
	</g>
	<g>
		<path fill="#FB6D51" d="M288.003,277.328c0,17.671-14.312,31.999-31.991,31.999c-17.672,0-32-14.328-32-31.999    c0-17.672,14.328-32,32-32C273.69,245.328,288.003,259.656,288.003,277.328z"/>
	</g>
	<g>
		<rect x="149.248" y="303.812" fill="#ED5564" width="213.504" height="208.184"/>
	</g>
	<g opacity="0.2">
		<rect x="341.44" y="303.812" fill="#FFFFFF" width="21.312" height="208.184"/>
	</g>
	<path fill="#CCD1D9" d="M245.34,447.996c0,5.891-4.781,10.656-10.672,10.656s-10.656-4.766-10.656-10.656   s4.766-10.672,10.656-10.672S245.34,442.105,245.34,447.996z"/>
	<path fill="#CCD1D9" d="M287.222,447.996c0,5.891-4.75,10.656-10.656,10.656c-5.883,0-10.663-4.766-10.663-10.656   s4.78-10.672,10.663-10.672C282.472,437.324,287.222,442.105,287.222,447.996z"/>
	<path fill="#CCD1D9" d="M256.012,415.997c-11.406,0-22.109-4.438-30.172-12.5c-16.64-16.64-16.64-43.702,0-60.343   c8.062-8.062,18.766-12.5,30.172-12.5c11.391,0,22.116,4.438,30.179,12.5c16.625,16.641,16.625,43.703,0,60.343   C278.128,411.56,267.402,415.997,256.012,415.997z"/>
	<path fill="#E5E8EC" d="M293.722,335.623c-10.406-10.422-24.07-15.625-37.71-15.625c-13.656,0-27.297,5.203-37.719,15.625   c-20.827,20.812-20.827,54.594,0,75.421c10.422,10.405,24.062,15.608,37.719,15.608c13.64,0,27.304-5.203,37.71-15.608   C314.534,390.217,314.534,356.436,293.722,335.623z M278.628,395.95c-6.031,6.047-14.069,9.375-22.616,9.375   s-16.594-3.328-22.625-9.375c-12.484-12.468-12.484-32.78,0-45.249c6.031-6.047,14.078-9.375,22.625-9.375   s16.585,3.328,22.616,9.375C291.097,363.17,291.097,383.482,278.628,395.95z"/>
	<g>
		<rect x="213.341" y="447.996" fill="#E5E8EC" width="85.318" height="53.327"/>
	</g>
	<path fill="#E5E8EC" d="M218.293,335.623c-2.577,2.578-4.843,5.359-6.78,8.297l73.896,73.904c2.938-1.937,5.719-4.202,8.312-6.78   c2.594-2.594,4.844-5.375,6.781-8.297l-73.913-73.921C223.668,330.764,220.871,333.029,218.293,335.623z"/>
	<path fill="#ED5564" d="M341.347,0.005H170.669c-5.89,0-10.655,4.766-10.655,10.656c0,5.89,4.766,10.671,10.655,10.671h170.678   c5.874,0,10.655-4.781,10.655-10.671C352.002,4.771,347.221,0.005,341.347,0.005z"/>
</g>
</svg>