<?xml version="1.0" encoding="iso-8859-1"?>
<!-- Uploaded to: SVG Repo, www.svgrepo.com, Generator: SVG Repo Mixer Tools -->
<svg height="800px" width="800px" version="1.1" id="Layer_1" xmlns="http://www.w3.org/2000/svg" xmlns:xlink="http://www.w3.org/1999/xlink" 
	 viewBox="0 0 511.147 511.147" xml:space="preserve">
<g transform="translate(1 1)">
	<g>
		<polygon style="fill:#FFE100;" points="284.867,164.973 260.973,140.227 284.867,116.333 309.613,140.227 		"/>
		<polygon style="fill:#FFE100;" points="333.507,212.76 309.613,188.867 333.507,164.973 357.4,188.867 		"/>
		<polygon style="fill:#FFE100;" points="429.933,309.187 406.04,285.293 429.933,261.4 453.827,285.293 		"/>
		<polygon style="fill:#FFE100;" points="382.147,261.4 357.4,237.507 382.147,212.76 406.04,237.507 		"/>
		<polygon style="fill:#FFE100;" points="478.573,357.827 453.827,333.933 478.573,309.187 502.467,333.933 		"/>
		<polygon style="fill:#FFE100;" points="24.6,100.973 58.733,100.973 58.733,66.84 24.6,66.84 		"/>
		<polygon style="fill:#FFE100;" points="92.867,100.973 127,100.973 127,66.84 92.867,66.84 		"/>
	</g>
	<g>
		<path style="fill:#FDCC00;" d="M260.973,261.4c-17.067,17.067-43.52,17.067-60.587,0c-17.067-17.067-17.067-43.52,0-60.587
			s43.52-17.067,60.587,0S278.04,244.333,260.973,261.4"/>
		<path style="fill:#FDCC00;" d="M417.987,418.413c-17.067,17.067-43.52,17.067-60.587,0c-17.067-17.067-17.067-43.52,0-60.587
			c17.067-17.067,43.52-17.067,60.587,0C435.053,374.893,435.053,401.347,417.987,418.413"/>
	</g>
	<path style="fill:#FFA800;" d="M418.84,357.827c-10.24-10.24-24.747-14.507-38.4-11.947c7.68,1.707,15.36,5.12,21.333,11.947
		c17.067,17.067,17.067,43.52,0,60.587c-5.973,5.973-13.653,10.24-21.333,11.947c13.653,2.56,28.16-0.853,38.4-11.947
		C435.907,401.347,435.907,374.893,418.84,357.827"/>
	<path style="fill:#FFE100;" d="M492.227,369.773L250.733,128.28c-6.827-6.827-17.067-6.827-23.893,0l-48.64,48.64l23.893,23.893
		c17.067-17.067,43.52-17.067,60.587,0c17.067,17.067,17.067,43.52,0,60.587l96.427,96.427c17.067-17.067,43.52-17.067,60.587,0
		c17.067,17.067,17.067,43.52,0,60.587l23.893,23.893l48.64-48.64C499.053,387.693,499.053,376.6,492.227,369.773"/>
	<path style="fill:#FFA800;" d="M489.667,369.773l-7.68-7.68c1.707,5.973,0.853,12.8-4.267,17.92l-48.64,48.64l-11.093-11.947
		c0,0.853-0.853,0.853-0.853,1.707l23.893,23.893l48.64-48.64C496.493,387.693,496.493,376.6,489.667,369.773"/>
	<g>
		<polygon style="fill:#FFE100;" points="7.533,271.64 144.067,271.64 144.067,186.307 7.533,186.307 		"/>
		<polygon style="fill:#FFE100;" points="7.533,356.973 144.067,356.973 144.067,271.64 7.533,271.64 		"/>
		<polygon style="fill:#FFE100;" points="7.533,442.307 144.067,442.307 144.067,356.973 7.533,356.973 		"/>
		<path style="fill:#FFE100;" d="M144.067,186.307H7.533V118.04c0-9.387,7.68-17.067,17.067-17.067H127
			c9.387,0,17.067,7.68,17.067,17.067V186.307z"/>
	</g>
	<g>
		<polygon style="fill:#FFFFFF;" points="7.533,271.64 33.133,271.64 33.133,186.307 7.533,186.307 		"/>
		<polygon style="fill:#FFFFFF;" points="7.533,356.973 33.133,356.973 33.133,271.64 7.533,271.64 		"/>
		<polygon style="fill:#FFFFFF;" points="7.533,442.307 33.133,442.307 33.133,356.973 7.533,356.973 		"/>
		<path style="fill:#FFFFFF;" d="M50.2,100.973H24.6c-9.387,0-17.067,7.68-17.067,17.067v68.267h25.6V118.04
			C33.133,108.653,40.813,100.973,50.2,100.973"/>
	</g>
	<path d="M284.867,173.507c-2.56,0-4.267-0.853-5.973-2.56L255,147.053c-3.413-3.413-3.413-8.533,0-11.947l23.893-23.893
		c3.413-3.413,8.533-3.413,11.947,0l23.893,23.893c3.413,3.413,3.413,8.533,0,11.947l-23.893,23.893
		C289.987,172.653,287.427,173.507,284.867,173.507z M272.92,140.227l11.947,11.947l12.8-11.947L285.72,128.28L272.92,140.227z"/>
	<path d="M333.507,221.293c-2.56,0-4.267-0.853-5.973-2.56L303.64,194.84c-3.413-3.413-3.413-8.533,0-11.947L327.533,159
		c3.413-3.413,8.533-3.413,11.947,0l23.893,23.893c3.413,3.413,3.413,8.533,0,11.947l-23.893,23.893
		C337.773,220.44,336.067,221.293,333.507,221.293z M321.56,188.867l11.947,11.947l11.947-11.947l-11.947-11.947L321.56,188.867z"/>
	<path d="M429.933,317.72c-2.56,0-4.267-0.853-5.973-2.56l-23.893-23.893c-3.413-3.413-3.413-8.533,0-11.947l23.893-23.893
		c3.413-3.413,8.533-3.413,11.947,0L459.8,279.32c3.413,3.413,3.413,8.533,0,11.947l-23.893,23.893
		C434.2,316.867,432.493,317.72,429.933,317.72z M417.987,285.293l11.947,11.947l11.947-11.947l-11.947-11.947L417.987,285.293z"/>
	<path d="M382.147,269.933L382.147,269.933c-2.56,0-4.267-0.853-5.973-2.56L352.28,243.48c-3.413-3.413-3.413-8.533,0-11.947
		l23.893-23.893c3.413-3.413,8.533-3.413,11.947,0l23.893,23.893c3.413,3.413,3.413,8.533,0,11.947l-23.893,23.893
		C386.413,269.08,383.853,269.933,382.147,269.933z M369.347,237.507l11.947,11.947l11.947-11.947l-11.947-11.947L369.347,237.507z"
		/>
	<path d="M478.573,366.36c-2.56,0-4.267-0.853-5.973-2.56l-24.747-23.893c-3.413-3.413-3.413-8.533,0-11.947l23.893-23.893
		c3.413-3.413,8.533-3.413,11.947,0l23.893,23.893c3.413,3.413,3.413,8.533,0,11.947L483.693,363.8
		C482.84,365.507,480.28,366.36,478.573,366.36z M466.627,333.933l11.947,11.947l11.947-11.947l-11.947-11.947L466.627,333.933z"/>
	<path d="M200.387,161.56c-2.56,0-4.267-0.853-5.973-2.56L152.6,116.333c-3.413-3.413-3.413-8.533,0-11.947
		c3.413-3.413,8.533-3.413,11.947,0l41.813,42.667c3.413,3.413,3.413,8.533,0,11.947C205.507,160.707,202.947,161.56,200.387,161.56
		z"/>
	<path d="M231.107,281.88c-12.8,0-26.453-5.12-35.84-15.36c-19.627-19.627-19.627-52.053,0-72.533
		c19.627-19.627,52.053-19.627,72.533,0c19.627,19.627,19.627,52.053,0,72.533l0,0C257.56,277.613,243.907,281.88,231.107,281.88z
		 M231.107,197.4c-8.533,0-17.067,3.413-23.893,10.24c-13.653,13.653-13.653,34.987,0,48.64c13.653,13.653,34.987,13.653,48.64,0
		c13.653-13.653,13.653-34.987,0-48.64C248.173,199.96,239.64,197.4,231.107,197.4z M260.973,261.4L260.973,261.4L260.973,261.4z"/>
	<path d="M388.12,438.893c-12.8,0-26.453-5.12-35.84-15.36c-9.387-9.387-15.36-22.187-15.36-35.84c0-13.653,5.12-26.453,15.36-35.84
		c19.627-19.627,52.053-19.627,72.533,0c9.387,9.387,15.36,22.187,15.36,35.84c0,13.653-5.12,26.453-15.36,35.84l0,0l0,0
		C413.72,433.773,400.92,438.893,388.12,438.893z M388.12,353.56c-8.533,0-17.067,3.413-23.893,10.24s-10.24,15.36-10.24,23.893
		c0,9.387,3.413,17.92,10.24,23.893c13.653,13.653,34.987,13.653,48.64,0l0,0c6.827-6.827,10.24-15.36,10.24-23.893
		c0-9.387-3.413-17.92-10.24-23.893C405.187,356.973,396.653,353.56,388.12,353.56z"/>
	<path d="M441.88,450.84c-2.56,0-4.267-0.853-5.973-2.56l-23.893-23.893c-3.413-3.413-3.413-8.533,0-11.947
		c13.653-13.653,13.653-34.987,0-48.64c-12.8-12.8-34.987-12.8-48.64,0c-3.413,3.413-8.533,3.413-11.947,0L255,267.373
		c-1.707-1.707-2.56-3.413-2.56-5.973c0-2.56,0.853-4.267,2.56-5.973c6.827-6.827,10.24-15.36,10.24-23.893
		c0-8.533-3.413-17.92-10.24-23.893c-6.827-6.827-15.36-10.24-23.893-10.24c-9.387,0-17.92,3.413-23.893,10.24
		c-3.413,3.413-8.533,3.413-11.947,0l-23.893-23.893c-1.707-1.707-2.56-3.413-2.56-5.973c0-2.56,0.853-4.267,2.56-5.973l48.64-48.64
		c10.24-10.24,26.453-10.24,35.84,0l241.493,241.493c10.24,10.24,10.24,26.453,0,35.84l-48.64,48.64
		C446.147,449.987,444.44,450.84,441.88,450.84z M429.933,417.56l12.8,12.8l42.667-41.813c3.413-3.413,3.413-8.533,0-11.947
		L243.053,134.253c-3.413-3.413-8.533-3.413-11.947,0l-41.813,41.813l12.8,12.8c8.533-5.973,18.773-9.387,29.867-9.387
		c13.653,0,26.453,5.12,35.84,15.36s15.36,22.187,15.36,35.84c0,11.093-3.413,21.333-9.387,29.867l85.333,85.333
		c8.533-5.973,18.773-9.387,29.867-9.387c13.653,0,26.453,5.12,35.84,15.36C441.88,369.773,443.587,397.933,429.933,417.56z"/>
	<path d="M382.147,402.2c-2.56,0-4.267-0.853-5.973-2.56c-3.413-3.413-3.413-8.533,0-11.947l11.947-11.947
		c3.413-3.413,8.533-3.413,11.947,0c3.413,3.413,3.413,8.533,0,11.947L388.12,399.64C386.413,401.347,383.853,402.2,382.147,402.2z"
		/>
	<path d="M225.133,246.04c-2.56,0-4.267-0.853-5.973-2.56c-3.413-3.413-3.413-8.533,0-11.947l11.947-11.947
		c3.413-3.413,8.533-3.413,11.947,0s3.413,8.533,0,11.947l-11.947,11.947C229.4,245.187,226.84,246.04,225.133,246.04z"/>
	<path d="M144.067,280.173H7.533c-5.12,0-8.533-3.413-8.533-8.533v-85.333c0-5.12,3.413-8.533,8.533-8.533h136.533
		c5.12,0,8.533,3.413,8.533,8.533v85.333C152.6,276.76,149.187,280.173,144.067,280.173z M16.067,263.107h119.467V194.84H16.067
		V263.107z"/>
	<path d="M144.067,365.507H7.533c-5.12,0-8.533-3.413-8.533-8.533V271.64c0-5.12,3.413-8.533,8.533-8.533h136.533
		c5.12,0,8.533,3.413,8.533,8.533v85.333C152.6,362.093,149.187,365.507,144.067,365.507z M16.067,348.44h119.467v-68.267H16.067
		V348.44z"/>
	<path d="M144.067,450.84H7.533c-5.12,0-8.533-3.413-8.533-8.533v-85.333c0-5.12,3.413-8.533,8.533-8.533h136.533
		c5.12,0,8.533,3.413,8.533,8.533v85.333C152.6,447.427,149.187,450.84,144.067,450.84z M16.067,433.773h119.467v-68.267H16.067
		V433.773z"/>
	<path d="M58.733,109.507H24.6c-5.12,0-8.533-3.413-8.533-8.533V66.84c0-5.12,3.413-8.533,8.533-8.533h34.133
		c5.12,0,8.533,3.413,8.533,8.533v34.133C67.267,106.093,63.853,109.507,58.733,109.507z M33.133,92.44H50.2V75.373H33.133V92.44z"
		/>
	<path d="M127,109.507H92.867c-5.12,0-8.533-3.413-8.533-8.533V66.84c0-5.12,3.413-8.533,8.533-8.533H127
		c5.12,0,8.533,3.413,8.533,8.533v34.133C135.533,106.093,132.12,109.507,127,109.507z M101.4,92.44h17.067V75.373H101.4V92.44z"/>
	<path d="M144.067,194.84H7.533c-5.12,0-8.533-3.413-8.533-8.533V118.04c0-14.507,11.093-25.6,25.6-25.6H127
		c14.507,0,25.6,11.093,25.6,25.6v68.267C152.6,191.427,149.187,194.84,144.067,194.84z M16.067,177.773h119.467V118.04
		c0-5.12-3.413-8.533-8.533-8.533H24.6c-5.12,0-8.533,3.413-8.533,8.533V177.773z"/>
	<path d="M146.627,130.84c-2.56,0-4.267-0.853-5.973-2.56c-3.413-3.413-3.413-8.533,0-11.947l11.947-11.947
		c3.413-3.413,8.533-3.413,11.947,0c3.413,3.413,3.413,8.533,0,11.947L152.6,128.28C150.893,129.987,148.333,130.84,146.627,130.84z
		"/>
</g>
</svg>