<?xml version="1.0" encoding="iso-8859-1"?>
<!-- Uploaded to: SVG Repo, www.svgrepo.com, Generator: SVG Repo Mixer Tools -->
<svg height="800px" width="800px" version="1.1" id="Layer_1" xmlns="http://www.w3.org/2000/svg" xmlns:xlink="http://www.w3.org/1999/xlink" 
	 viewBox="0 0 297 297" xml:space="preserve">
<g id="XMLID_42_">
	<g>
		<path style="fill:#BDC3C7;" d="M263.01,131.37V243.7c0,21.63-17.6,39.23-39.23,39.23H73.23c-21.63,0-39.24-17.6-39.24-39.23
			V131.37c8.63,10.44,18.65,19.67,29.77,27.43v69.4c0,2.78,2.26,5.04,5.04,5.04h159.4c2.79,0,5.04-2.26,5.04-5.04v-69.4
			C244.37,151.04,254.39,141.81,263.01,131.37z"/>
		<path style="fill:#BDC3C7;" d="M263.01,14.07V114.6c-8.21,12.06-18.27,22.76-29.77,31.69v-37.64c0-2.78-2.25-5.04-5.04-5.04H68.8
			c-2.78,0-5.04,2.26-5.04,5.04v37.64c-11.5-8.93-21.56-19.63-29.77-31.69V14.07h29.77V68.8c0,13.77,11.2,24.97,24.97,24.97
			c13.73,0,24.91-11.15,24.96-24.86c4.16,3.09,9.32,4.93,14.89,4.93c13.76,0,24.96-11.2,24.96-24.96V14.07h21.8v36.8
			c0,10.47,8.52,18.99,18.99,18.99s18.99-8.52,18.99-18.99v-36.8C213.32,14.07,263.01,14.07,263.01,14.07z"/>
		<path style="fill:#EF717A;" d="M223.16,165.24v57.92H73.84v-57.92c21.95,12.82,47.46,20.18,74.66,20.18
			S201.21,178.06,223.16,165.24z"/>
		<path style="fill:#EF717A;" d="M223.16,113.69v39.73c-21.55,13.86-47.18,21.92-74.66,21.92c-27.47,0-53.1-8.06-74.66-21.92v-39.73
			H223.16z"/>
		<path style="fill:#EF717A;" d="M143.46,14.07v34.81c0,8.2-6.67,14.88-14.88,14.88s-14.89-6.68-14.89-14.88
			c0-2.79-2.25-5.04-5.04-5.04c-2.78,0-5.04,2.25-5.04,5.04V68.8c0,8.21-6.67,14.88-14.88,14.88S73.84,77.01,73.84,68.8V14.07
			H143.46z"/>
		<path style="fill:#EF717A;" d="M203.24,14.07v36.8c0,4.91-4,8.91-8.91,8.91s-8.91-4-8.91-8.91v-36.8H203.24z"/>
		<path d="M291.96,31.88c2.79,0,5.04,2.26,5.04,5.04c0,29.74-8.79,57.46-23.91,80.72V243.7c0,27.19-22.12,49.31-49.31,49.31H73.23
			c-27.19,0-49.32-22.12-49.32-49.31V117.64C8.8,94.38,0,66.66,0,36.92c0-2.78,2.26-5.04,5.04-5.04h18.87V9.03
			c0-2.79,2.26-5.04,5.04-5.04h239.1c2.79,0,5.04,2.25,5.04,5.04v22.85H291.96z M286.83,41.96h-13.74V97.2
			C281.26,80.39,286.12,61.7,286.83,41.96z M263.01,243.7V131.37c-8.62,10.44-18.64,19.67-29.77,27.43v69.4
			c0,2.78-2.25,5.04-5.04,5.04H68.8c-2.78,0-5.04-2.26-5.04-5.04v-69.4c-11.12-7.76-21.14-16.99-29.77-27.43V243.7
			c0,21.63,17.61,39.23,39.24,39.23h150.55C245.41,282.93,263.01,265.33,263.01,243.7z M263.01,114.6V14.07h-49.69v36.8
			c0,10.47-8.52,18.99-18.99,18.99s-18.99-8.52-18.99-18.99v-36.8h-21.8v34.81c0,13.76-11.2,24.96-24.96,24.96
			c-5.57,0-10.73-1.84-14.89-4.93c-0.05,13.71-11.23,24.86-24.96,24.86c-13.77,0-24.97-11.2-24.97-24.97V14.07H33.99V114.6
			c8.21,12.06,18.27,22.76,29.77,31.69v-37.64c0-2.78,2.26-5.04,5.04-5.04h159.4c2.79,0,5.04,2.26,5.04,5.04v37.64
			C244.74,137.36,254.8,126.66,263.01,114.6z M223.16,223.16v-57.92c-21.95,12.82-47.46,20.18-74.66,20.18s-52.71-7.36-74.66-20.18
			v57.92L223.16,223.16L223.16,223.16z M223.16,153.42v-39.73H73.84v39.73c21.56,13.86,47.19,21.92,74.66,21.92
			C175.98,175.34,201.61,167.28,223.16,153.42z M203.24,50.87v-36.8h-17.82v36.8c0,4.91,4,8.91,8.91,8.91S203.24,55.78,203.24,50.87
			z M143.46,48.88V14.07H73.84V68.8c0,8.21,6.68,14.88,14.89,14.88s14.88-6.67,14.88-14.88V48.88c0-2.79,2.26-5.04,5.04-5.04
			c2.79,0,5.04,2.25,5.04,5.04c0,8.2,6.68,14.88,14.89,14.88S143.46,57.08,143.46,48.88z M23.91,97.2V41.96H10.17
			C10.88,61.7,15.75,80.39,23.91,97.2z"/>
	</g>
</g>
</svg>