<?xml version="1.0" encoding="iso-8859-1"?>
<!-- Uploaded to: SVG Repo, www.svgrepo.com, Generator: SVG Repo Mixer Tools -->
<svg height="800px" width="800px" version="1.1" id="Layer_1" xmlns="http://www.w3.org/2000/svg" xmlns:xlink="http://www.w3.org/1999/xlink" 
	 viewBox="0 0 512 512" xml:space="preserve">
<path style="fill:#E6CDA5;" d="M443.776,503.983H68.223c-4.857,0-8.738-4.04-8.545-8.893l16.09-402.246
	c0.368-9.171,7.91-16.418,17.089-16.418h326.284c9.18,0,16.722,7.247,17.088,16.419l16.09,402.246
	C452.514,499.943,448.632,503.983,443.776,503.983z"/>
<path d="M362.346,256.748c-4.309,1.018-6.977,5.336-5.958,9.645c1.831,7.752,2.76,15.763,2.76,23.811
	c0,23.707-7.819,45.994-22.61,64.452c-8.978,11.203-20.217,20.378-32.806,26.967l7.949-11.146c2.571-3.605,1.733-8.611-1.872-11.182
	c-3.604-2.571-8.611-1.733-11.182,1.872l-23.422,32.84c-1.604,2.25-1.938,5.169-0.88,7.723s3.356,4.382,6.082,4.839l39.782,6.662
	c0.448,0.075,0.894,0.111,1.334,0.111c3.846,0,7.241-2.775,7.897-6.693c0.731-4.366-2.216-8.5-6.582-9.231l-11.18-1.873
	c14.337-7.593,27.145-18.077,37.389-30.862c16.852-21.026,26.133-47.477,26.133-74.477c0-9.288-1.073-18.539-3.19-27.498
	C370.973,258.399,366.653,255.731,362.346,256.748z"/>
<path d="M232.189,390.592c-22.216-5.248-42.361-18.011-56.727-35.937c-14.792-18.457-22.61-40.743-22.61-64.45
	c0-0.777,0.016-1.554,0.033-2.33l6.181,12.555c1.395,2.834,4.239,4.478,7.198,4.477c1.189,0,2.396-0.266,3.535-0.826
	c3.972-1.956,5.606-6.761,3.651-10.734l-17.817-36.187c-1.221-2.48-3.633-4.156-6.383-4.435c-2.75-0.277-5.45,0.879-7.143,3.063
	l-24.719,31.873c-2.714,3.499-2.077,8.534,1.422,11.247c3.498,2.714,8.534,2.078,11.247-1.422l6.782-8.745
	c-0.006,0.487-0.021,0.975-0.021,1.462c0,26.999,9.28,53.449,26.131,74.477c16.592,20.706,39.873,35.449,65.554,41.515
	c0.62,0.146,1.239,0.216,1.849,0.216c3.632,0,6.924-2.486,7.795-6.175C239.165,395.929,236.498,391.611,232.189,390.592z"/>
<path d="M312.686,210.508c-4.255-1.224-8.697,1.231-9.92,5.488c-1.225,4.254,1.232,8.697,5.488,9.92l38.763,11.154
	c0.73,0.211,1.475,0.312,2.216,0.312c1.953,0,3.868-0.714,5.358-2.053c2.056-1.847,3.015-4.624,2.539-7.347l-6.96-39.731
	c-0.764-4.361-4.919-7.276-9.28-6.514c-4.361,0.764-7.277,4.919-6.514,9.28l1.946,11.11c-21.792-19.955-50.159-31.105-80.323-31.105
	c-36.932,0-71.175,16.707-93.947,45.837c-2.727,3.489-2.11,8.527,1.379,11.253c1.467,1.146,3.206,1.702,4.932,1.702
	c2.383,0,4.741-1.057,6.321-3.079c19.711-25.217,49.35-39.679,81.315-39.679c26.264,0,50.953,9.771,69.86,27.242L312.686,210.508z"
	/>
<path d="M444.24,92.524c-0.541-13.523-11.565-24.115-25.099-24.115h-87.657l-2.992-23.935C325.324,19.12,303.666,0,278.113,0
	h-44.228c-25.552,0-47.211,19.12-50.38,44.475l-2.992,23.935H92.857c-13.533,0-24.558,10.593-25.099,24.115l-16.09,402.245
	c-0.179,4.482,1.5,8.907,4.608,12.141c3.107,3.236,7.461,5.09,11.946,5.09h375.554c4.485,0,8.84-1.854,11.947-5.089
	c3.107-3.233,4.786-7.66,4.608-12.14L444.24,92.524z M199.414,46.464c2.169-17.348,16.989-30.43,34.472-30.43h44.228
	c17.483,0,32.302,13.082,34.472,30.43l2.742,21.945H196.672L199.414,46.464z M444.161,495.803c-0.157,0.164-0.323,0.164-0.385,0.164
	H68.223c-0.062,0-0.227,0-0.385-0.164c-0.158-0.165-0.152-0.33-0.149-0.392l16.09-402.246c0.196-4.891,4.184-8.722,9.078-8.722
	h231.519c0.007,0,0.015,0.001,0.022,0.001c0.005,0,0.011-0.001,0.017-0.001h94.726c4.894,0,8.883,3.831,9.078,8.722l16.09,402.246
	C444.312,495.473,444.319,495.638,444.161,495.803z"/>
</svg>