<?xml version="1.0" encoding="iso-8859-1"?>
<!-- Uploaded to: SVG Repo, www.svgrepo.com, Generator: SVG Repo Mixer Tools -->
<svg height="800px" width="800px" version="1.1" id="Layer_1" xmlns="http://www.w3.org/2000/svg" xmlns:xlink="http://www.w3.org/1999/xlink" 
	 viewBox="0 0 502 502" xml:space="preserve">
<g>
	<polygon style="fill:#5CC9C1;" points="394.011,89.12 107.989,89.12 67.701,492 434.299,492 	"/>
	<g>
		<path d="M141.751,176.42c-0.333,0-0.669-0.017-1.007-0.051c-5.496-0.55-9.505-5.45-8.955-10.945l4.056-40.554
			c0.55-5.495,5.452-9.504,10.945-8.955c5.496,0.55,9.505,5.45,8.955,10.945l-4.056,40.554
			C151.173,172.571,146.826,176.42,141.751,176.42z"/>
	</g>
	<g>
		<path d="M113.364,460.289c-0.333,0-0.669-0.017-1.007-0.051c-5.495-0.55-9.505-5.45-8.955-10.945l23.984-239.841
			c0.549-5.496,5.45-9.513,10.945-8.955c5.496,0.55,9.505,5.45,8.955,10.945l-23.984,239.841
			C122.787,456.44,118.439,460.289,113.364,460.289z"/>
	</g>
	<path d="M444.249,491.005L403.961,88.124c-0.511-5.112-4.813-9.005-9.95-9.005h-56.856C333.412,34.868,296.204,0,251,0
		s-82.412,34.868-86.155,79.119h-56.856c-5.138,0-9.439,3.893-9.95,9.005L57.751,491.005c-0.281,2.812,0.64,5.61,2.536,7.705
		s4.589,3.29,7.415,3.29H434.3c2.825,0,5.519-1.195,7.415-3.29S444.53,493.816,444.249,491.005z M251,20
		c34.167,0,62.384,25.915,66.055,59.119h-132.11C188.616,45.915,216.833,20,251,20z M78.751,482l38.288-382.881h267.923L423.249,482
		H78.751z"/>
</g>
</svg>