<?xml version="1.0" encoding="iso-8859-1"?>
<!-- Uploaded to: SVG Repo, www.svgrepo.com, Generator: SVG Repo Mixer Tools -->
<svg height="800px" width="800px" version="1.1" id="Layer_1" xmlns="http://www.w3.org/2000/svg" xmlns:xlink="http://www.w3.org/1999/xlink" 
	 viewBox="0 0 512 512" xml:space="preserve">
<g transform="translate(1 1)">
	<g>
		<path style="fill:#FFE100;" d="M380.176,207.213V7.533H209.509v192.853c0,27.307-12.8,52.907-34.987,69.12L32.016,372.76
			c-29.013,29.013-29.867,75.947-1.707,105.813l0,0c29.013,31.573,78.507,32.427,109.227,1.707l145.067-103.253
			c12.8-9.387,28.16-13.653,44.373-13.653c5.973,0,11.947-0.853,17.92-2.56c30.72-7.68,54.613-34.133,58.027-66.56
			c1.707-19.627-3.413-37.547-13.653-52.053C384.443,231.96,380.176,220.013,380.176,207.213"/>
		<path style="fill:#FFE100;" d="M485.989,243.053c-7.68-10.24-11.947-22.187-11.947-34.987V7.533h-93.867v199.68
			c0,12.8,4.267,24.747,11.947,34.987c10.24,14.507,15.36,32.427,13.653,52.053c-3.413,31.573-27.307,58.88-58.027,66.56
			c-5.973,1.707-11.947,2.56-17.92,2.56c-16.213,0-31.573,4.267-44.373,13.653L140.389,480.28c-2.56,2.56-4.267,4.267-6.827,5.973
			c29.867,23.893,73.387,22.187,100.693-5.973l145.067-103.253c12.8-9.387,28.16-13.653,44.373-13.653
			c5.973,0,11.947-0.853,17.92-2.56c30.72-7.68,54.613-34.133,58.027-66.56C501.349,275.48,496.229,257.56,485.989,243.053"/>
	</g>
	<g>
		<path style="fill:#63D3FD;" d="M139.536,480.28c-2.56,2.56-4.267,4.267-6.827,5.973c27.307,21.333,65.707,22.187,93.013,0.853
			c0-3.413,0.853-6.827,0.853-9.387c0-17.92-4.267-34.987-12.8-49.493L139.536,480.28z"/>
		<polygon style="fill:#63D3FD;" points="380.176,92.867 474.043,92.867 474.043,58.733 380.176,58.733 		"/>
		<path style="fill:#63D3FD;" d="M485.989,243.053c-2.56-3.413-4.267-5.973-5.973-9.387c-6.827-3.413-14.507-4.267-23.04-4.267
			c-23.04,0-43.52,10.24-58.027,26.453c5.12,11.947,7.68,24.747,5.973,39.253c-1.707,16.213-8.533,30.72-18.773,41.813
			c5.12,11.093,11.947,20.48,20.48,28.16c5.12-0.853,10.24-1.707,15.36-1.707c5.973,0,11.947-0.853,17.92-2.56
			c30.72-7.68,54.613-34.133,58.027-66.56C501.349,275.48,496.229,257.56,485.989,243.053"/>
	</g>
	<g>
		<polygon style="fill:#00DA6C;" points="380.176,92.867 209.509,92.867 209.509,58.733 380.176,58.733 		"/>
		<path style="fill:#00DA6C;" d="M286.309,306.2c0,23.893,10.24,44.373,27.307,58.88c5.12-0.853,10.24-1.707,15.36-1.707
			c5.973,0,11.947-0.853,17.92-2.56c30.72-7.68,54.613-34.133,58.027-66.56c1.707-19.627-3.413-37.547-13.653-52.053
			c-2.56-3.413-4.267-5.973-5.973-9.387c-5.973-2.56-13.653-3.413-22.187-3.413C320.443,229.4,286.309,263.533,286.309,306.2"/>
		<path style="fill:#00DA6C;" d="M31.163,374.467c-27.307,29.013-28.16,74.24-0.853,104.107
			c27.307,29.013,71.68,31.573,101.547,8.533c0-3.413,0.853-6.827,0.853-9.387C132.709,420.547,87.483,374.467,31.163,374.467"/>
	</g>
	<g>
		<path style="fill:#FFFFFF;" d="M55.909,478.573L55.909,478.573c-28.16-29.867-27.307-76.8,1.707-105.813l142.507-103.253
			c22.187-16.213,34.987-41.813,34.987-69.12V7.533h-25.6v192.853c0,27.307-12.8,52.907-34.987,69.12L32.016,372.76
			c-29.013,29.013-29.867,75.947-1.707,105.813l0,0c17.92,19.627,44.373,27.307,68.267,23.04
			C83.216,499.053,67.856,491.373,55.909,478.573"/>
		<path style="fill:#FFFFFF;" d="M55.909,478.573c-26.453-28.16-27.307-71.68-1.707-101.547c-7.68-1.707-15.36-2.56-23.04-2.56
			c-27.307,29.013-28.16,74.24-0.853,104.107c17.92,19.627,43.52,27.307,68.267,23.04C82.363,498.2,67.856,491.373,55.909,478.573"
			/>
	</g>
	<path style="fill:#FFA800;" d="M499.643,294.253c1.707-19.627-3.413-37.547-13.653-52.053c-7.68-10.24-11.947-22.187-11.947-34.987
		V7.533h-25.6v199.68c0,12.8,4.267,24.747,11.947,34.987c10.24,14.507,15.36,32.427,13.653,52.053H499.643z"/>
	<g>
		<path style="fill:#3DB9F9;" d="M485.989,242.2c-2.56-3.413-4.267-5.973-5.973-9.387c-6.827-2.56-14.507-3.413-22.187-3.413
			c-4.267,0-8.533,0.853-12.8,0.853c3.413,0.853,6.827,1.707,10.24,2.56c1.707,3.413,3.413,6.827,5.973,9.387
			c10.24,14.507,15.36,32.427,13.653,52.053c-3.413,31.573-27.307,58.88-58.027,66.56c-3.413,0.853-6.827,1.707-10.24,1.707
			c0.853,0.853,1.707,1.707,2.56,1.707c5.12-0.853,10.24-1.707,15.36-1.707c5.973,0,11.947-0.853,17.92-2.56
			c30.72-7.68,54.613-34.133,58.027-66.56C501.349,275.48,496.229,256.707,485.989,242.2"/>
		<polygon style="fill:#3DB9F9;" points="449.296,92.013 474.896,92.013 474.896,57.88 449.296,57.88 		"/>
	</g>
	<path d="M209.509,101.4c-2.56,0-4.267-0.853-5.973-2.56s-2.56-3.413-2.56-5.973V58.733c0-5.12,3.413-8.533,8.533-8.533h170.667
		c5.12,0,8.533,3.413,8.533,8.533v34.133c0,5.12-3.413,8.533-8.533,8.533H209.509L209.509,101.4z M218.043,67.267v17.067h153.6
		V67.267H218.043z"/>
	<path d="M85.776,511L85.776,511c-23.04,0-46.08-9.387-61.44-26.453c-31.573-33.28-30.72-85.333,1.707-116.907l0.853-0.853
		l142.507-103.253c19.627-14.507,31.573-37.547,31.573-62.293V7.533c0-5.12,3.413-8.533,8.533-8.533h170.667
		c5.12,0,8.533,3.413,8.533,8.533v199.68c0,10.24,3.413,20.48,10.24,30.72c11.947,17.067,17.067,37.547,14.507,58.027
		c-3.413,34.987-29.867,64.853-64.853,73.387c-6.827,1.707-13.653,2.56-19.627,2.56c-15.36,0-29.013,4.267-39.253,11.947
		L144.656,487.107C129.296,502.467,107.963,511,85.776,511z M37.989,379.587c-25.6,25.6-25.6,66.56-0.853,93.013
		c11.947,13.653,29.867,21.333,48.64,21.333l0,0c17.92,0,34.987-6.827,47.787-19.627l0.853-0.853L279.483,370.2
		c13.653-9.387,30.72-14.507,49.493-15.36c5.12,0,11.093-0.853,16.213-1.707c27.307-6.827,48.64-30.72,52.053-58.88
		c1.707-17.067-2.56-32.427-11.947-46.08c-8.533-12.8-13.653-26.453-13.653-40.107v-192h-153.6v184.32
		c0,29.867-14.507,58.027-38.4,75.947L37.989,379.587z"/>
	<path d="M243.643,33.133c-5.12,0-8.533-3.413-8.533-8.533V7.533c0-5.12,3.413-8.533,8.533-8.533c5.12,0,8.533,3.413,8.533,8.533
		V24.6C252.176,28.867,248.763,33.133,243.643,33.133z"/>
	<path d="M277.776,33.133c-5.12,0-8.533-3.413-8.533-8.533V7.533c0-5.12,3.413-8.533,8.533-8.533s8.533,3.413,8.533,8.533V24.6
		C286.309,28.867,282.896,33.133,277.776,33.133z"/>
	<path d="M311.909,33.133c-5.12,0-8.533-3.413-8.533-8.533V7.533c0-5.12,3.413-8.533,8.533-8.533c5.12,0,8.533,3.413,8.533,8.533
		V24.6C320.443,28.867,317.029,33.133,311.909,33.133z"/>
	<path d="M313.616,373.613c-1.707,0-4.267-0.853-5.12-1.707c-19.627-17.067-30.72-40.96-30.72-65.707
		c0-46.933,38.4-85.333,85.333-85.333c8.533,0,17.067,1.707,25.6,4.267c2.56,0.853,4.267,2.56,5.12,4.267
		c1.707,3.413,3.413,5.973,5.12,8.533c11.947,17.067,17.067,37.547,14.507,58.027c-3.413,34.987-29.867,64.853-64.853,73.387
		c-6.827,1.707-13.653,2.56-19.627,2.56c-4.267,0-8.533,0.853-13.653,1.707C314.469,373.613,314.469,373.613,313.616,373.613z
		 M363.109,237.933c-37.547,0-68.267,30.72-68.267,68.267c0,18.773,7.68,36.693,21.333,49.493c4.267-0.853,8.533-0.853,12.8-0.853
		c5.12,0,11.093-0.853,16.213-1.707c27.307-6.827,48.64-30.72,52.053-58.88c1.707-17.067-2.56-32.427-11.947-46.08
		c-1.707-2.56-3.413-5.12-4.267-7.68C375.056,238.787,369.083,237.933,363.109,237.933z"/>
	<path d="M85.776,511L85.776,511c-23.04,0-46.08-9.387-61.44-26.453c-30.72-32.427-29.867-83.627,0.853-116.053
		c0.853-1.707,3.413-2.56,5.973-2.56c60.587,0,110.08,49.493,110.08,110.933c0,3.413,0,6.827-0.853,10.24
		c0,2.56-1.707,4.267-3.413,5.973C122.469,505.027,104.549,511,85.776,511z M34.576,383c-22.187,25.6-21.333,64,1.707,89.6
		c12.8,13.653,30.72,21.333,49.493,21.333c13.653,0,27.307-4.267,38.4-11.947c0-1.707,0-3.413,0-5.12
		C124.176,426.52,84.069,385.56,34.576,383z"/>
	<path d="M346.043,33.133c-5.12,0-8.533-3.413-8.533-8.533V7.533c0-5.12,3.413-8.533,8.533-8.533c5.12,0,8.533,3.413,8.533,8.533
		V24.6C354.576,28.867,351.163,33.133,346.043,33.133z"/>
	<path d="M405.776,33.133c-5.12,0-8.533-3.413-8.533-8.533V7.533c0-5.12,3.413-8.533,8.533-8.533c5.12,0,8.533,3.413,8.533,8.533
		V24.6C414.309,28.867,410.896,33.133,405.776,33.133z"/>
	<path d="M439.909,33.133c-5.12,0-8.533-3.413-8.533-8.533V7.533c0-5.12,3.413-8.533,8.533-8.533c5.12,0,8.533,3.413,8.533,8.533
		V24.6C448.443,28.867,445.029,33.133,439.909,33.133z"/>
	<path d="M179.643,511L179.643,511c-18.773,0-37.547-6.827-52.053-17.92c-1.707-1.707-3.413-4.267-3.413-6.827
		s0.853-5.12,3.413-6.827c1.707-1.707,4.267-3.413,5.973-5.12l0.853-0.853L279.483,370.2c13.653-9.387,30.72-14.507,49.493-15.36
		c5.12,0,10.24-0.853,16.213-1.707c27.307-6.827,48.64-30.72,52.053-58.88c1.707-17.067-2.56-32.427-11.947-46.08
		c-8.533-12.8-13.653-26.453-13.653-40.107V7.533c0-5.12,3.413-8.533,8.533-8.533h93.867c5.12,0,8.533,3.413,8.533,8.533v199.68
		c0,10.24,3.413,20.48,10.24,30.72c11.947,17.067,17.067,37.547,14.507,58.027c-3.413,34.987-29.867,64.853-64.853,73.387
		c-6.827,1.707-13.653,2.56-19.627,2.56c-15.36,0-29.013,4.267-39.253,11.947L238.523,487.107
		C223.163,502.467,201.829,511,179.643,511z M147.216,485.4c10.24,5.973,21.333,8.533,33.28,8.533
		c17.92,0,34.987-6.827,47.787-19.627l0.853-0.853L374.203,370.2c13.653-9.387,30.72-14.507,49.493-15.36
		c5.12,0,11.093-0.853,16.213-1.707c27.307-6.827,48.64-30.72,52.053-58.88c1.707-17.067-2.56-32.427-11.947-46.08
		c-8.533-12.8-13.653-26.453-13.653-40.107v-192h-76.8v191.147c0,10.24,3.413,20.48,10.24,30.72
		C411.75,255,416.87,275.48,414.31,295.96c-3.413,34.987-29.867,64.853-64.853,73.387c-6.827,1.707-13.653,2.56-19.627,2.56
		c-15.36,0-29.013,4.267-39.253,11.947L147.216,485.4z"/>
	<path d="M179.643,511L179.643,511c-18.773,0-37.547-6.827-52.053-17.92c-1.707-1.707-3.413-4.267-3.413-6.827
		s0.853-5.12,3.413-6.827c1.707-1.707,4.267-3.413,5.973-5.12l0.853-0.853l74.24-52.907c1.707-1.707,4.267-1.707,6.827-1.707
		c2.56,0.853,4.267,1.707,5.973,4.267c9.387,16.213,13.653,34.987,13.653,53.76c0,3.413,0,6.827-0.853,10.24
		c0,2.56-1.707,4.267-3.413,5.973C216.336,505.027,198.416,511,179.643,511z M147.216,485.4c10.24,5.973,21.333,8.533,32.427,8.533
		l0,0c13.653,0,27.307-4.267,38.4-11.947c0-1.707,0-3.413,0-5.12c0-12.8-2.56-25.6-7.68-36.693L147.216,485.4z"/>
	<path d="M474.043,101.4h-93.867c-5.12,0-8.533-3.413-8.533-8.533V58.733c0-5.12,3.413-8.533,8.533-8.533h93.867
		c5.12,0,8.533,3.413,8.533,8.533v34.133C482.576,97.133,479.163,101.4,474.043,101.4z M388.709,84.333h76.8V67.267h-76.8V84.333z"
		/>
	<path d="M407.483,373.613c-1.707,0-4.267-0.853-5.12-1.707c-10.24-8.533-17.92-18.773-23.04-31.573
		c-1.707-3.413-0.853-6.827,1.707-9.387c9.387-11.093,15.36-23.893,16.213-37.547c0.853-11.947-0.853-23.893-5.12-34.987
		c-1.707-3.413-0.853-6.827,1.707-9.387c16.213-18.773,39.253-29.013,64-29.013c8.533,0,17.067,1.707,25.6,4.267
		c2.56,0.853,4.267,2.56,5.12,4.267c1.707,3.413,3.413,5.973,5.12,8.533c11.947,17.067,17.067,37.547,14.507,58.027
		c-3.413,34.987-29.867,64.853-64.853,73.387c-6.827,1.707-13.653,2.56-19.627,2.56c-4.267,0-8.533,0.853-13.653,1.707
		C408.336,373.613,408.336,373.613,407.483,373.613z M396.389,337.773c3.413,6.827,7.68,12.8,13.653,17.92
		c4.267-0.853,8.533-0.853,12.8-0.853c5.12,0,11.093-0.853,16.213-1.707c27.307-6.827,48.64-30.72,52.053-58.88
		c1.707-17.067-2.56-32.427-11.947-46.08c-1.707-2.56-3.413-5.12-4.267-7.68c-23.04-5.973-47.787,0.853-64.853,17.067
		c4.267,11.947,5.973,24.747,4.267,38.4C412.603,311.32,406.629,325.827,396.389,337.773z"/>
</g>
</svg>