<?xml version="1.0" encoding="iso-8859-1"?>
<!-- Uploaded to: SVG Repo, www.svgrepo.com, Generator: SVG Repo Mixer Tools -->
<svg version="1.1" id="Layer_1" xmlns="http://www.w3.org/2000/svg" xmlns:xlink="http://www.w3.org/1999/xlink" 
	 viewBox="0 0 511.999 511.999" xml:space="preserve">
<g>
	<path style="fill:#69952F;" d="M144.12,471.335c8.827,0,15.982,7.327,15.982,16.155c0,8.827-7.156,16.155-15.982,16.155h-7.992
		H375.87h-7.992c-8.827,0-15.982-7.327-15.982-16.155c0-8.827,7.161-16.155,15.989-16.155"/>
	<path style="fill:#69952F;" d="M144.12,71.765c8.827,0,15.982,7.084,15.982,15.911s-7.156,15.911-15.982,15.911h-7.992H375.87
		h-7.992c-8.827,0-15.982-7.084-15.982-15.911s7.156-15.947,15.982-15.947"/>
</g>
<path style="fill:#8CC63F;" d="M382.846,471.335H129.152c-0.561,0-1.015-0.454-1.015-1.015V104.746c0-0.561,0.454-1.015,1.015-1.015
	h253.693c0.561,0,1.016,0.454,1.016,1.015v365.573C383.862,470.88,383.406,471.335,382.846,471.335z"/>
<path style="fill:#A3D165;" d="M381.712,471.335H319.93V103.731h61.782c1.187,0,2.149,0.962,2.149,2.149v363.308
	C383.862,470.373,382.9,471.335,381.712,471.335z"/>
<path style="fill:#69952F;" d="M130.286,471.335h61.782V103.731h-61.782c-1.187,0-2.149,0.962-2.149,2.149v363.308
	C128.136,470.373,129.098,471.335,130.286,471.335z"/>
<polygon style="fill:#FDF57A;" points="383.862,279.541 128.136,359.455 128.136,279.541 383.862,199.627 "/>
<polygon style="fill:#FCEE21;" points="319.93,303.515 128.136,359.455 128.136,279.541 319.93,215.611 "/>
<polygon style="fill:#BDB319;" points="192.068,343.473 128.136,359.455 128.136,279.541 192.068,255.567 "/>
<circle style="fill:#FFFFFF;" cx="256.004" cy="279.538" r="31.966"/>
<rect x="128.132" y="439.373" style="fill:#FDF57A;" width="255.723" height="31.966"/>
<rect x="128.132" y="439.373" style="fill:#FCEE21;" width="191.797" height="31.966"/>
<rect x="128.132" y="439.373" style="fill:#BDB319;" width="63.936" height="31.966"/>
<rect x="128.132" y="103.733" style="fill:#FDF57A;" width="255.723" height="31.966"/>
<rect x="128.132" y="103.733" style="fill:#FCEE21;" width="191.797" height="31.966"/>
<rect x="128.132" y="103.733" style="fill:#BDB319;" width="63.936" height="31.966"/>
<rect x="152.71" y="127.611" width="16.713" height="15.668"/>
<rect x="176.734" y="127.611" width="15.668" height="15.668"/>
<rect x="200.758" y="127.611" width="14.623" height="15.668"/>
<rect x="223.738" y="127.611" width="15.668" height="15.668"/>
<rect x="248.807" y="127.611" width="14.623" height="15.668"/>
<rect x="272.831" y="127.611" width="14.623" height="15.668"/>
<rect x="296.855" y="127.611" width="14.623" height="15.668"/>
<rect x="318.791" y="127.611" width="16.713" height="15.668"/>
<rect x="343.859" y="127.611" width="15.668" height="15.668"/>
<rect x="152.71" y="431.57" width="16.713" height="15.668"/>
<rect x="176.734" y="431.57" width="15.668" height="15.668"/>
<rect x="200.758" y="431.57" width="14.623" height="15.668"/>
<rect x="223.738" y="431.57" width="15.668" height="15.668"/>
<rect x="248.807" y="431.57" width="14.623" height="15.668"/>
<rect x="272.831" y="431.57" width="14.623" height="15.668"/>
<rect x="296.855" y="431.57" width="14.623" height="15.668"/>
<rect x="318.791" y="431.57" width="16.713" height="15.668"/>
<rect x="343.859" y="431.57" width="15.668" height="15.668"/>
<path d="M375.437,95.897h-7.553v-0.008c-4.178,0-8.152-3.66-8.152-8.159c0-4.504,3.654-8.166,8.147-8.166h8.36V63.895H273.439
	l6.704-39.43v-0.649C280.143,10.685,269.251,0,256.119,0c-13.133,0-24.024,10.685-24.024,23.816v0.649l6.608,39.43H135.997v15.668
	h8.122c4.494,0,8.265,3.663,8.265,8.166s-3.853,8.166-8.031,8.166h-7.791c-8.965,0-16.258,7.293-16.258,16.258v350.755
	c0,8.965,7.293,16.258,16.258,16.258h7.791c4.178,0,8.031,3.931,8.031,8.582c0,4.651-3.849,8.582-8.265,8.582h-8.122v15.668H376.24
	v-15.668h-8.36c-4.417,0-8.183-3.931-8.183-8.582c0-4.159,2.964-8.582,7.143-8.582h8.598c8.965,0,16.258-7.293,16.258-16.258
	V112.155C391.695,103.189,384.402,95.897,375.437,95.897z M376.027,273.782l-86.394,26.998c3.898-6.151,6.166-13.433,6.166-21.238
	c0-1.406-0.075-2.794-0.218-4.162l80.447-25.139L376.027,273.782L376.027,273.782z M135.971,285.301l86.395-26.999
	c-3.898,6.151-6.166,13.434-6.166,21.24c0,1.406,0.075,2.793,0.218,4.161l-80.447,25.14v-23.542H135.971z M255.998,303.673
	c-13.306,0-24.132-10.825-24.132-24.132s10.826-24.132,24.132-24.132c13.306,0,24.133,10.825,24.133,24.132
	S269.305,303.673,255.998,303.673z M135.971,325.258l85.131-26.604c4.282,7.786,11.09,13.993,19.316,17.506L135.971,348.8V325.258z
	 M376.027,233.825l-85.129,26.602c-4.282-7.786-11.09-13.993-19.317-17.506l104.446-32.64L376.027,233.825L376.027,233.825z
	 M256.019,15.668c4.312,0,7.872,3.365,8.153,7.606l-1.54,9.285h-13.211l-1.542-9.285C248.157,19.033,251.708,15.668,256.019,15.668z
	 M252.022,48.227h8.012l-2.598,15.668h-2.812L252.022,48.227z M166.495,79.563h179.007c-0.933,2.549-1.438,5.299-1.438,8.166
	s0.488,5.618,1.392,8.166H166.559c0.961-2.549,1.494-5.299,1.494-8.166S167.427,82.112,166.495,79.563z M136.561,111.565h238.875
	c0.326,0,0.59,0.265,0.59,0.59v15.457h-8.144v15.668h8.144v50.589L135.97,268.886V143.28h8.382v-15.668h-8.382v-15.457
	C135.971,111.83,136.235,111.565,136.561,111.565z M345.602,496.332H166.395c0.995-2.669,1.657-5.562,1.657-8.582
	c0-3.021-0.575-5.912-1.601-8.582h179.028c-0.936,2.657-1.451,5.545-1.451,8.582C344.028,490.77,344.606,493.663,345.602,496.332z
	 M375.437,463.5H136.561c-0.326,0-0.59-0.265-0.59-0.59v-15.671h8.382v-15.668h-8.382v-66.356l240.057-75.017v141.374h-8.144v15.668
	h8.144v15.671C376.027,463.235,375.762,463.5,375.437,463.5z"/>
<rect x="279.098" y="343.829" style="fill:#FFFFFF;" width="80.429" height="15.668"/>
<rect x="304.167" y="368.898" width="55.36" height="15.668"/>
<g>
	<rect x="272.831" y="391.878" style="fill:#FFFFFF;" width="14.623" height="15.668"/>
	<rect x="296.855" y="391.878" style="fill:#FFFFFF;" width="14.623" height="15.668"/>
	<rect x="318.791" y="391.878" style="fill:#FFFFFF;" width="16.713" height="15.668"/>
	<rect x="343.859" y="391.878" style="fill:#FFFFFF;" width="15.668" height="15.668"/>
</g>
</svg>