<?xml version="1.0" encoding="utf-8"?>
<!-- Uploaded to: SVG Repo, www.svgrepo.com, Generator: SVG Repo Mixer Tools -->
<svg width="800px" height="800px" viewBox="0 -49.15 335.897 335.897" xmlns="http://www.w3.org/2000/svg"><defs><style>.a{fill:#4d4745;}.b{fill:#231815;}.c{fill:#ffffff;}.d{fill:#dedede;}</style></defs><path class="a" d="M4.179,161.051c-.012-19.807-.813-45.928-1.715-67.419A12.89,12.89,0,0,1,12.949,80.418c41.471-7.852,152.02-29.431,220.883-41.354a27.206,27.206,0,0,1,17.276,2.721c24.585,12.882,55.635,29.912,76.785,42.839a11.678,11.678,0,0,1,5.57,10.905c-1.662,20.546-3.416,49.23-4.738,67.851a5.831,5.831,0,0,1-4.391,5.248c-42.9,10.879-218.842,57.163-253.873,66.383a5.834,5.834,0,0,1-5.893-1.809c-12.186-13.98-50.809-58.992-58.961-68.335A5.792,5.792,0,0,1,4.179,161.051Z"/><path class="b" d="M6.579,161.051c-.019-19.7-.622-39.407-1.38-59.093q-.139-3.619-.29-7.239a12.789,12.789,0,0,1,.775-5.778,10.836,10.836,0,0,1,8.148-6.255c4.917-.962,9.844-1.873,14.765-2.814q19.675-3.765,39.349-7.545,24.12-4.623,48.247-9.208,25.681-4.872,51.381-9.656,24.441-4.539,48.913-8.923,5.592-1,11.186-1.977c3.927-.689,7.884-1.638,11.892-1.474,5,.2,9.228,2.183,13.573,4.472q6.288,3.31,12.55,6.669c17.135,9.188,34.172,18.579,50.93,28.439q2.8,1.65,5.6,3.323a55.026,55.026,0,0,1,5.279,3.246A9.321,9.321,0,0,1,330.7,91.9a16.113,16.113,0,0,1,.174,6.02c-.725,9.18-1.364,18.368-1.988,27.555q-.944,13.881-1.86,27.762-.208,3.087-.421,6.172c-.115,1.654.122,3.916-.774,5.367-1.049,1.7-3.511,1.891-5.307,2.349q-11.928,3.043-23.841,6.144-16.373,4.244-32.737,8.516-19.127,4.989-38.25,9.994-20.236,5.3-40.47,10.6-19.609,5.142-39.218,10.291-17.532,4.6-35.063,9.212l-27.422,7.211-9.816,2.583c-1.249.328-2.5.708-3.755.988-2.883.641-4.478-2.065-6.129-3.968q-12.338-14.218-24.6-28.5-12.72-14.773-25.445-29.541-2.052-2.378-4.107-4.752c-1.217-1.4-3.007-2.891-3.095-4.847-.139-3.076-4.939-3.093-4.8,0,.144,3.187,1.872,5.21,3.833,7.471q2.067,2.383,4.128,4.773,5.858,6.783,11.7,13.576,14.079,16.35,28.162,32.7,5.53,6.411,11.076,12.811c2.172,2.5,4.195,4.949,7.787,5.205,1.9.135,3.834-.574,5.654-1.053l22.437-5.9q16.053-4.221,32.107-8.44,19.278-5.064,38.558-10.124,20.573-5.4,41.147-10.789,20.3-5.319,40.6-10.624,18.086-4.725,36.176-9.432,14.281-3.712,28.569-7.4,5.107-1.314,10.217-2.616c3.741-.951,6.654-3.325,7.141-7.359.492-4.082.592-8.249.868-12.351q.96-14.257,1.912-28.515c.632-9.229,1.535-18.461,2.024-27.7a14.11,14.11,0,0,0-5.336-11.711c-3.353-2.637-7.389-4.627-11.06-6.79Q306.966,69.41,294.256,62.37,281,54.983,267.616,47.821q-6.365-3.411-12.755-6.774c-4.541-2.388-8.981-4.254-14.154-4.688-4.409-.37-8.738.6-13.056,1.355q-5.781,1.013-11.561,2.041-12.108,2.154-24.205,4.366-25.921,4.731-51.816,9.617-25.83,4.858-51.646,9.8-22.52,4.3-45.035,8.629-9.139,1.753-18.279,3.5-3.876.741-7.754,1.48c-2.847.541-5.8.884-8.46,2.087a15.38,15.38,0,0,0-8,8.848c-1.528,4.26-.681,9.175-.51,13.594q.6,15.495.988,31c.23,9.457.394,18.916.4,28.376C1.782,164.14,6.582,164.145,6.579,161.051Z"/><path class="b" d="M86.057,145.416c13.517-2.532,26.984-5.339,40.445-8.15q27.551-5.752,55.056-11.716,29.006-6.258,57.987-12.625,24.555-5.39,49.1-10.848c9.464-2.107,18.933-4.2,28.379-6.386q.729-.168,1.458-.34c3-.71,1.732-5.339-1.277-4.629-8.405,1.985-16.844,3.829-25.273,5.71q-23.643,5.275-47.305,10.469-28.771,6.325-57.564,12.556-27.984,6.053-56,11.959c-14.185,2.978-28.375,5.942-42.61,8.675q-1.833.352-3.669.7a2.421,2.421,0,0,0-1.676,2.952,2.451,2.451,0,0,0,2.952,1.676Z"/><path class="b" d="M68.809,153.894c0,17.785-.429,35.572-.855,53.351q-.2,8.284-.414,16.57c-.079,3.09,4.721,3.088,4.8,0,.485-18.888.965-37.777,1.183-56.67q.077-6.626.086-13.251c0-3.089-4.8-3.094-4.8,0Z"/><path class="b" d="M11,96.221c13.6,12.831,27.476,25.376,41.327,37.932q5.4,4.9,10.833,9.768c2.3,2.053,5.7-1.33,3.4-3.394q-22.106-19.77-43.838-39.955c-2.784-2.572-5.567-5.144-8.323-7.745C12.147,90.708,8.747,94.1,11,96.221Z"/><path class="c" d="M86.215,101.435C108.536,96.735,184.031,80.08,227,70.8c3.872-.836,7.48-1.612,10.76-2.314,3.294,1.762,6.631,3.57,9.981,5.393-36.784,7.824-128.1,28-154.779,33.642-2.227-2.048-4.494-4.089-6.745-6.087"/><path class="b" d="M95.517,101.9q25.044-5.385,50.062-10.894,30.065-6.573,60.133-13.135,16.344-3.558,32.7-7.073c3.019-.647,1.741-5.275-1.276-4.629q-29.361,6.285-58.684,12.743-29.433,6.431-58.866,12.863-12.667,2.762-25.342,5.5c-3.018.65-1.741,5.278,1.276,4.629Z"/><path class="c" d="M59.933,38.86l-.021-.029A2.638,2.638,0,0,1,61,34.851a90.362,90.362,0,0,1,50.722-6.529c4.972.756,9.9,1.9,14.913,2.246,10.963.75,21.851-2.373,31.992-6.6s19.788-9.592,29.993-13.667a129.467,129.467,0,0,1,18.69-5.864C220.443,1.383,235.6.853,245.983,9.45a3.785,3.785,0,0,1,1.384,1.776,4.065,4.065,0,0,1-.2,2.161l-.6,2.134c-.014.049-.027.1-.037.15-5.759,27.2-4.566,30.508-9.249,52.743,2.51.231,7.9,3.316,10.466,5.466C211.8,85.552,122.433,104.582,92.96,107.522c-3.191-1.9-5.672-4.013-6.745-6.087l9.4-2.007C92.394,86.957,76.9,61.621,71.218,54.44,67.981,50.346,63.454,43.677,59.933,38.86Z"/><path class="b" d="M239.572,69.122c1.765-8.391,3.117-16.828,4.342-25.311.588-4.076,1.217-8.146,1.931-12.2q.681-3.87,1.442-7.724c.532-2.708.961-5.49,1.7-8.148.637-2.274,1.442-4.576-.1-6.7-1.632-2.25-4.634-3.927-7.088-5.141A40.007,40.007,0,0,0,225.552.044c-12.31-.481-24.855,3.017-36.233,7.415-12.73,4.919-24.535,11.984-37.41,16.543a68.894,68.894,0,0,1-19.263,4.205c-6.908.364-13.5-1.171-20.285-2.2A94.875,94.875,0,0,0,73.621,27.9a92.917,92.917,0,0,0-9.436,3.073c-2.733,1.054-6.217,1.9-7.038,5.123-.77,3.025,1.83,5.508,3.43,7.762,1.684,2.37,3.354,4.75,5.057,7.107.816,1.128,1.638,2.251,2.481,3.358q.6.786,1.206,1.564l.3.376c.237.3-.277-.375.132.174q1.355,1.823,2.629,3.7c2.342,3.447,4.556,6.982,6.7,10.556C83.767,78.523,88.46,86.786,91.7,95.2a46.068,46.068,0,0,1,1.6,4.87c.783,2.986,5.414,1.72,4.629-1.276A66.76,66.76,0,0,0,93.807,88c-1.927-4.2-4.072-8.3-6.316-12.332A203.889,203.889,0,0,0,74.674,55.069c-2.649-3.659-5.412-7.229-8.025-10.918q-1.2-1.694-2.4-3.385-.576-.81-1.157-1.617c-.254-.354-1.257-1.355-1.288-1.81-.023-.342.629-.515,1.107-.716,1.542-.652,3.106-1.254,4.682-1.818a88.756,88.756,0,0,1,36.343-4.956c6.675.48,13.168,2.027,19.8,2.838a57.775,57.775,0,0,0,19.62-1.188c12.762-2.855,24.39-9.065,36.138-14.582,11.357-5.334,23.387-9.871,35.888-11.559a50.459,50.459,0,0,1,16.024.117,31.249,31.249,0,0,1,7.133,2.16,28.516,28.516,0,0,1,3.305,1.774c.589.368,1.168.755,1.724,1.17.389.29,1.16.7,1.355,1.13.385.843-.6,2.834-.814,3.807-.652,3.017-1.251,6.047-1.833,9.079q-1.291,6.732-2.331,13.508c-1.139,7.459-2.118,14.935-3.517,22.352q-.7,3.7-1.48,7.391c-.634,3.014,3.992,4.3,4.628,1.276Z"/><path class="d" d="M101.41,62.409l7.7,29.278c.785,2.985,5.416,1.719,4.629-1.276l-7.7-29.278c-.784-2.985-5.416-1.72-4.628,1.276Z"/><path class="d" d="M218.138,49.257q-.606,9.133-1.536,18.24a2.415,2.415,0,0,0,2.4,2.4,2.454,2.454,0,0,0,2.4-2.4q.93-9.105,1.536-18.24a2.4,2.4,0,1,0-4.8,0Z"/><path class="b" d="M94.977,97.114q-4.7,1.011-9.4,2.006a2.424,2.424,0,0,0-1.434,3.526,14.224,14.224,0,0,0,3.418,4,30.809,30.809,0,0,0,2.591,1.944,5.364,5.364,0,0,0,2.97,1.319,49.386,49.386,0,0,0,5.091-.593c4.29-.555,8.568-1.2,12.838-1.891,10.763-1.747,21.482-3.762,32.176-5.882q18.642-3.693,37.188-7.852c12.035-2.691,24.042-5.511,36-8.539,9.758-2.472,19.5-5.05,29.113-8.047q1.429-.445,2.852-.907c1.567-.508,2.538-2.793,1.059-4.011-3.108-2.559-7.056-5.14-11.04-6.01-3.011-.658-4.3,3.968-1.276,4.628a22.951,22.951,0,0,1,8.922,4.776l1.059-4.011c-8.659,2.808-17.454,5.2-26.262,7.489-11.091,2.886-22.236,5.564-33.406,8.125q-17.712,4.062-35.516,7.719c-10.837,2.226-21.7,4.347-32.592,6.271-4.5.794-9,1.553-13.51,2.249q-2.964.458-5.935.87c-.2.029-.409.056-.614.084-.437.06.3-.038-.267.036q-.683.09-1.365.177-1.2.151-2.392.29-1.14.13-2.282.246l1.212.327c-2.217-1.336-4.612-2.9-5.885-5.226l-1.434,3.526q4.7-.992,9.4-2.006c3.018-.65,1.741-5.278-1.276-4.629Z"/></svg>