<?xml version="1.0" encoding="iso-8859-1"?>
<!-- Uploaded to: SVG Repo, www.svgrepo.com, Generator: SVG Repo Mixer Tools -->
<svg height="800px" width="800px" version="1.1" id="Layer_1" xmlns="http://www.w3.org/2000/svg" xmlns:xlink="http://www.w3.org/1999/xlink" 
	 viewBox="0 0 512 512" xml:space="preserve">
<path style="fill:#E4EAF8;" d="M341.423,126.564l-55.45-62.381c-2.783-3.131-4.319-7.173-4.319-11.362V33.67h-51.307v19.151
	c0,4.188-1.537,8.232-4.319,11.362l-55.451,62.382c-5.565,6.261-8.639,14.347-8.639,22.724h188.125
	C350.063,140.911,346.988,132.825,341.423,126.564z"/>
<path style="fill:#D5DCED;" d="M289.254,67.875l-3.281-3.692c-1.285-1.446-2.271-3.101-2.996-4.859l0,0
	c-0.416-1.006-0.735-2.049-0.96-3.116c-0.004-0.024-0.015-0.045-0.019-0.068c-0.224-1.085-0.344-2.194-0.344-3.319V42.221h-51.307
	v10.601c0,4.188-1.537,8.23-4.319,11.361l-55.451,62.382c-5.565,6.261-8.639,14.347-8.639,22.724h68.409
	c0-8.377,1.118-16.463,3.141-22.724l15.696-47.004c2.33-6.979,8.863-11.685,16.222-11.685h23.849V67.875z"/>
<path style="fill:#9BF57D;" d="M281.653,42.221h-51.307c-4.722,0-8.551-3.829-8.551-8.551V16.568c0-4.722,3.829-8.551,8.551-8.551
	h51.307c4.722,0,8.551,3.829,8.551,8.551V33.67C290.205,38.393,286.376,42.221,281.653,42.221z"/>
<path style="fill:#8CE16E;" d="M247.449,33.67V16.568c0-4.722,3.829-8.551,8.551-8.551h-25.653c-4.722,0-8.551,3.829-8.551,8.551
	V33.67c0,4.722,3.829,8.551,8.551,8.551H256C251.278,42.221,247.449,38.393,247.449,33.67z"/>
<path style="fill:#BBE8FC;" d="M350.063,196.142v-51.307H161.937v51.307c0,9.445,7.658,17.102,17.102,17.102
	c-9.445,0-17.102,7.656-17.102,17.102v8.551c0,9.445,7.658,17.102,17.102,17.102c-9.445,0-17.102,7.656-17.102,17.102v8.551
	c0,9.445,7.658,17.102,17.102,17.102c-9.445,0-17.102,7.656-17.102,17.102v8.551c0,9.445,7.658,17.102,17.102,17.102
	c-9.445,0-17.102,7.656-17.102,17.102v8.551c0,9.445,7.658,17.102,17.102,17.102c-9.445,0-17.102,7.656-17.102,17.102v8.551
	c0,9.445,7.658,17.102,17.102,17.102c-9.445,0-17.102,7.656-17.102,17.102v25.653c0,18.891,15.313,34.205,34.205,34.205h119.716
	c18.892,0,34.205-15.314,34.205-34.205v-25.653c0-9.446-7.658-17.102-17.102-17.102c9.445,0,17.102-7.658,17.102-17.102v-8.551
	c0-9.446-7.658-17.102-17.102-17.102c9.445,0,17.102-7.658,17.102-17.102v-8.551c0-9.446-7.658-17.102-17.102-17.102
	c9.445,0,17.102-7.658,17.102-17.102v-8.551c0-9.446-7.658-17.102-17.102-17.102c9.445,0,17.102-7.658,17.102-17.102v-8.551
	c0-9.446-7.658-17.102-17.102-17.102c9.445,0,17.102-7.658,17.102-17.102v-8.551c0-9.446-7.658-17.102-17.102-17.102
	C342.405,213.244,350.063,205.587,350.063,196.142z"/>
<path style="fill:#90DDFA;" d="M230.347,469.779v-25.653c0-9.446,7.658-17.102,17.102-17.102c-9.445,0-17.102-7.658-17.102-17.102
	v-8.551c0-9.446,7.658-17.102,17.102-17.102c-9.445,0-17.102-7.658-17.102-17.102v-8.551c0-9.446,7.658-17.102,17.102-17.102
	c-9.445,0-17.102-7.658-17.102-17.102v-8.551c0-9.446,7.658-17.102,17.102-17.102c-9.445,0-17.102-7.658-17.102-17.102v-8.551
	c0-9.446,7.658-17.102,17.102-17.102c-9.445,0-17.102-7.658-17.102-17.102v-8.551c0-9.446,7.658-17.102,17.102-17.102
	c-9.445,0-17.102-7.658-17.102-17.102v-51.307h-68.409v51.307c0,9.445,7.658,17.102,17.102,17.102
	c-9.445,0-17.102,7.656-17.102,17.102v8.551c0,9.445,7.658,17.102,17.102,17.102c-9.445,0-17.102,7.656-17.102,17.102v8.551
	c0,9.445,7.658,17.102,17.102,17.102c-9.445,0-17.102,7.656-17.102,17.102v8.551c0,9.445,7.658,17.102,17.102,17.102
	c-9.445,0-17.102,7.656-17.102,17.102v8.551c0,9.445,7.658,17.102,17.102,17.102c-9.445,0-17.102,7.656-17.102,17.102v8.551
	c0,9.445,7.658,17.102,17.102,17.102c-9.445,0-17.102,7.656-17.102,17.102v25.653c0,18.891,15.313,34.205,34.205,34.205h68.409
	C245.66,503.983,230.347,488.669,230.347,469.779z"/>
<path d="M358.079,149.289c0-10.352-3.787-20.314-10.665-28.051l-55.449-62.38c-1.48-1.665-2.295-3.808-2.295-6.036V48.16
	c5.093-2.829,8.551-8.26,8.551-14.489V16.569C298.221,7.432,290.789,0,281.653,0h-51.307c-9.136,0-16.568,7.432-16.568,16.568V33.67
	c0,6.228,3.458,11.659,8.551,14.489v4.663c0,2.228-0.816,4.371-2.295,6.036l-55.449,62.381
	c-6.877,7.737-10.665,17.699-10.665,28.051v46.853c0,6.603,2.564,12.614,6.745,17.102c-4.18,4.488-6.745,10.5-6.745,17.102v8.551
	c0,6.603,2.564,12.614,6.745,17.102c-4.18,4.488-6.745,10.5-6.745,17.102v8.551c0,6.603,2.564,12.614,6.745,17.102
	c-4.18,4.488-6.745,10.5-6.745,17.102v8.551c0,6.603,2.564,12.614,6.745,17.102c-4.18,4.488-6.745,10.5-6.745,17.102v8.551
	c0,6.603,2.564,12.614,6.745,17.102c-4.18,4.488-6.745,10.5-6.745,17.102v8.551c0,6.603,2.564,12.614,6.745,17.102
	c-4.18,4.488-6.745,10.5-6.745,17.102v25.653c0,23.28,18.941,42.221,42.221,42.221h119.716c23.281,0,42.221-18.941,42.221-42.221
	v-25.653c0-6.603-2.564-12.614-6.745-17.102c4.18-4.488,6.745-10.5,6.745-17.102v-8.551c0-6.603-2.564-12.614-6.745-17.102
	c4.18-4.488,6.745-10.5,6.745-17.102v-8.551c0-6.603-2.564-12.614-6.745-17.102c4.18-4.488,6.745-10.5,6.745-17.102v-8.551
	c0-6.603-2.564-12.614-6.745-17.102c4.18-4.488,6.745-10.5,6.745-17.102v-8.551c0-6.603-2.564-12.614-6.745-17.102
	c4.18-4.488,6.745-10.5,6.745-17.102v-8.551c0-6.603-2.564-12.614-6.745-17.102c4.18-4.488,6.745-10.5,6.745-17.102V149.289z
	 M229.812,16.568c0-0.295,0.239-0.534,0.534-0.534h51.307c0.295,0,0.534,0.239,0.534,0.534V33.67c0,0.295-0.239,0.534-0.534,0.534
	h-51.307c-0.295,0-0.534-0.239-0.534-0.534V16.568z M176.568,131.891l55.45-62.381c4.092-4.604,6.345-10.53,6.345-16.688v-2.585
	h35.273v2.584c0,6.158,2.253,12.085,6.345,16.689l55.449,62.381c1.346,1.514,2.476,3.176,3.427,4.928H173.143
	C174.093,135.066,175.224,133.403,176.568,131.891z M342.046,469.779c0,14.44-11.748,26.188-26.188,26.188H196.142
	c-14.44,0-26.188-11.748-26.188-26.188v-25.653c0-5.01,4.076-9.086,9.086-9.086H332.96c5.01,0,9.086,4.076,9.086,9.086V469.779z
	 M342.046,409.921c0,5.01-4.076,9.086-9.086,9.086H179.04c-5.01,0-9.086-4.076-9.086-9.086v-8.551c0-5.01,4.076-9.086,9.086-9.086
	H332.96c5.01,0,9.086,4.076,9.086,9.086V409.921z M342.046,367.165c0,5.01-4.076,9.086-9.086,9.086H179.04
	c-5.01,0-9.086-4.076-9.086-9.086v-8.551c0-5.01,4.076-9.086,9.086-9.086H332.96c5.01,0,9.086,4.076,9.086,9.086V367.165z
	 M342.046,324.409c0,5.01-4.076,9.086-9.086,9.086H179.04c-5.01,0-9.086-4.076-9.086-9.086v-8.551c0-5.01,4.076-9.086,9.086-9.086
	H332.96c5.01,0,9.086,4.076,9.086,9.086V324.409z M342.046,281.653c0,5.01-4.076,9.086-9.086,9.086H179.04
	c-5.01,0-9.086-4.076-9.086-9.086v-8.551c0-5.01,4.076-9.086,9.086-9.086H332.96c5.01,0,9.086,4.076,9.086,9.086V281.653z
	 M342.046,238.898c0,5.01-4.076,9.086-9.086,9.086H179.04c-5.01,0-9.086-4.076-9.086-9.086v-8.551c0-5.01,4.076-9.086,9.086-9.086
	H332.96c5.01,0,9.086,4.076,9.086,9.086V238.898z M332.96,205.228H179.04c-5.01,0-9.086-4.076-9.086-9.086v-43.29h172.092v43.29
	C342.046,201.152,337.97,205.228,332.96,205.228z"/>
</svg>